<svg xmlns="http://www.w3.org/2000/svg" width="58" height="58" viewBox="0 0 58 58">
  <g id="arido" transform="translate(744 -974)">
    <g id="jupiter" transform="translate(-744 974)">
      <path id="Caminho_25" data-name="Caminho 25" d="M3.771,31a19.163,19.163,0,0,0,10.056-2.828A15.545,15.545,0,0,1,22,26a15.551,15.551,0,0,1,8.174,2.172A19.163,19.163,0,0,0,40.23,31H57.845a.7.7,0,0,1,.077.016C57.968,30.349,58,29.678,58,29s-.032-1.349-.078-2.016c-.026,0-.049.016-.076.016H39a1,1,0,0,1,0-2H57.719a28.9,28.9,0,0,0-.846-4,.975.975,0,0,1-.28.057H27a1,1,0,0,1,0-2H56.248a28.893,28.893,0,0,0-1.9-4.139.97.97,0,0,1-.49.146H48a1,1,0,0,1,0-2h5.223a28.982,28.982,0,0,0-44.18-5.09h8.02a1,1,0,0,1,0,2H8.029a.989.989,0,0,1-.67-.268A29.248,29.248,0,0,0,4.777,13.06H10a1,1,0,0,1,0,2H4.142a.98.98,0,0,1-.49-.146A28.824,28.824,0,0,0,2.165,18H7.858a1,1,0,0,1,0,2H2a.972.972,0,0,1-.514-.163,28.906,28.906,0,0,0-.875,3.222H14a1,1,0,0,1,0,2H.42a.979.979,0,0,1-.143-.029A29.214,29.214,0,0,0,0,29c0,.678.032,1.349.078,2.016A.641.641,0,0,1,.154,31Z" fill="#cbb292"/>
      <path id="Caminho_26" data-name="Caminho 26" d="M30.174,43.828A15.551,15.551,0,0,1,22,46a15.551,15.551,0,0,1-8.174-2.172A19.16,19.16,0,0,0,3.771,41H2.6a28.907,28.907,0,0,0,2.423,4.314.994.994,0,0,1,.713-.18,14,14,0,0,1,5.469,1.952A20.532,20.532,0,0,0,22,50a20.538,20.538,0,0,0,10.795-2.914A14.16,14.16,0,0,1,40.229,45H52.488a.974.974,0,0,1,.568.2A28.906,28.906,0,0,0,55.4,41H40.23A19.163,19.163,0,0,0,30.174,43.828Z" fill="#fbd490"/>
      <path id="Caminho_27" data-name="Caminho 27" d="M29.125,29.875A13.549,13.549,0,0,0,22,28a13.549,13.549,0,0,0-7.125,1.875A21.165,21.165,0,0,1,3.771,33H.281A28.848,28.848,0,0,0,1.8,39.074.991.991,0,0,1,2.165,39H3.77a21.165,21.165,0,0,1,11.1,3.125A13.555,13.555,0,0,0,22,44a13.549,13.549,0,0,0,7.125-1.875A21.166,21.166,0,0,1,40.23,39h15.6a.991.991,0,0,1,.365.074A28.833,28.833,0,0,0,57.718,33H40.23A21.166,21.166,0,0,1,29.125,29.875Z" fill="#d6bfa5"/>
      <circle id="Elipse_1" data-name="Elipse 1" cx="19" cy="19" r="19" transform="translate(3 7)" fill="#d6bfa5"/>
      <path id="Caminho_28" data-name="Caminho 28" d="M33.844,48.789A22.528,22.528,0,0,1,22,52a22.528,22.528,0,0,1-11.844-3.211,11.916,11.916,0,0,0-3.638-1.474A28.99,28.99,0,0,0,43.692,54H34a1,1,0,0,1,0-2H45.146a.985.985,0,0,1,.844.5A29.143,29.143,0,0,0,51.729,47h-11.5A12.162,12.162,0,0,0,33.844,48.789Z" fill="#cbb292"/>
      <circle id="Elipse_2" data-name="Elipse 2" cx="12" cy="12" r="12" transform="translate(7 11)" fill="#e5c5a5"/>
      <path id="Caminho_29" data-name="Caminho 29" d="M40.229,45a14.164,14.164,0,0,0-7.435,2.086A20.532,20.532,0,0,1,22,50a20.538,20.538,0,0,1-10.8-2.914,13.981,13.981,0,0,0-5.469-1.952.984.984,0,0,0-.713.18q.7,1.033,1.495,2a11.951,11.951,0,0,1,3.638,1.474A22.528,22.528,0,0,0,22,52a22.528,22.528,0,0,0,11.844-3.211A12.163,12.163,0,0,1,40.23,47h11.5c.463-.584.91-1.181,1.328-1.8a.98.98,0,0,0-.569-.2Z" fill="#af8066"/>
      <path id="Caminho_30" data-name="Caminho 30" d="M57.846,31H40.23a19.167,19.167,0,0,1-10.057-2.828A15.545,15.545,0,0,0,22,26a15.551,15.551,0,0,0-8.174,2.172A19.16,19.16,0,0,1,3.771,31H.154a.7.7,0,0,0-.077.016q.069,1,.2,1.984H3.77a21.165,21.165,0,0,0,11.1-3.125A13.555,13.555,0,0,1,22,28a13.549,13.549,0,0,1,7.125,1.875A21.166,21.166,0,0,0,40.23,33H57.718q.135-.982.2-1.984A.641.641,0,0,0,57.846,31Z" fill="#af8066"/>
      <path id="Caminho_31" data-name="Caminho 31" d="M40.23,39a21.166,21.166,0,0,0-11.1,3.125A13.549,13.549,0,0,1,22,44a13.549,13.549,0,0,1-7.125-1.875A21.165,21.165,0,0,0,3.771,39H2.165a.986.986,0,0,0-.365.074c.243.654.513,1.295.8,1.926h1.17a19.163,19.163,0,0,1,10.056,2.828A15.545,15.545,0,0,0,22,46a15.551,15.551,0,0,0,8.174-2.172A19.163,19.163,0,0,1,40.23,41H55.4c.287-.631.558-1.272.8-1.926A.991.991,0,0,0,55.835,39Z" fill="#af8066"/>
      <path id="Caminho_32" data-name="Caminho 32" d="M45.146,52H34a1,1,0,0,0,0,2h9.692q1.187-.7,2.3-1.5A.984.984,0,0,0,45.146,52Z" fill="#af8066"/>
      <path id="Caminho_33" data-name="Caminho 33" d="M38,26a1,1,0,0,0,1,1H57.846a.7.7,0,0,0,.077-.016q-.069-1-.2-1.984H39A1,1,0,0,0,38,26Z" fill="#af8066"/>
      <path id="Caminho_34" data-name="Caminho 34" d="M26,20.053a1,1,0,0,0,1,1H56.592a.969.969,0,0,0,.28-.057c-.188-.657-.391-1.307-.624-1.943H27A1,1,0,0,0,26,20.053Z" fill="#af8066"/>
      <path id="Caminho_35" data-name="Caminho 35" d="M14,25.06a1,1,0,1,0,0-2H.611c-.135.649-.243,1.307-.334,1.971a.979.979,0,0,0,.143.029Z" fill="#af8066"/>
      <path id="Caminho_36" data-name="Caminho 36" d="M47,14.06a1,1,0,0,0,1,1h5.858a.98.98,0,0,0,.49-.146q-.528-.95-1.126-1.854H48A1,1,0,0,0,47,14.06Z" fill="#af8066"/>
      <path id="Caminho_37" data-name="Caminho 37" d="M10,15.06a1,1,0,0,0,0-2H4.777q-.6.9-1.126,1.854a.97.97,0,0,0,.49.146Z" fill="#af8066"/>
      <path id="Caminho_38" data-name="Caminho 38" d="M7.858,20a1,1,0,0,0,0-2H2.165c-.247.6-.472,1.216-.679,1.837A.972.972,0,0,0,2,20Z" fill="#af8066"/>
      <path id="Caminho_39" data-name="Caminho 39" d="M17.062,9.971a1,1,0,0,0,0-2H9.042C8.458,8.525,7.895,9.1,7.359,9.7a.989.989,0,0,0,.67.268Z" fill="#af8066"/>
      <path id="Caminho_40" data-name="Caminho 40" d="M41.393,10H39.148a.052.052,0,0,1-.02-.1,2,2,0,0,0,1.345-2.236A2.075,2.075,0,0,0,38.393,6H33.5a2,2,0,0,0-2,1.951A.05.05,0,0,1,31.452,8H28.607a2.075,2.075,0,0,0-2.08,1.664A2,2,0,0,0,27.872,11.9a.052.052,0,0,1-.02.1H24.607a2.075,2.075,0,0,0-2.08,1.664A2,2,0,0,0,24.5,16h10a2,2,0,0,0,2-1.951A.05.05,0,0,1,36.548,14H41.5a2,2,0,0,0,1.973-2.336A2.075,2.075,0,0,0,41.393,10Z" fill="#fbd490"/>
      <path id="Caminho_41" data-name="Caminho 41" d="M22,41c-4.337,0-8-2.29-8-5s3.663-5,8-5,8,2.29,8,5S26.337,41,22,41Z" fill="#fbd490"/>
      <circle id="Elipse_3" data-name="Elipse 3" cx="1" cy="1" r="1" transform="translate(3 3)" fill="#f3d55b"/>
      <circle id="Elipse_4" data-name="Elipse 4" cx="1" cy="1" r="1" transform="translate(17 18)" fill="#f3d55b"/>
      <circle id="Elipse_5" data-name="Elipse 5" cx="1" cy="1" r="1" transform="translate(20 22)" fill="#f3d55b"/>
      <circle id="Elipse_6" data-name="Elipse 6" cx="1" cy="1" r="1" transform="translate(39 35)" fill="#f3d55b"/>
      <circle id="Elipse_7" data-name="Elipse 7" cx="1" cy="1" r="1" transform="translate(6 54)" fill="#f3d55b"/>
      <circle id="Elipse_8" data-name="Elipse 8" cx="1" cy="1" r="1" transform="translate(1 47)" fill="#f3d55b"/>
      <circle id="Elipse_9" data-name="Elipse 9" cx="1" cy="1" r="1" transform="translate(12)" fill="#f3d55b"/>
      <circle id="Elipse_10" data-name="Elipse 10" cx="1" cy="1" r="1" transform="translate(46 10)" fill="#f3d55b"/>
      <circle id="Elipse_11" data-name="Elipse 11" cx="1" cy="1" r="1" transform="translate(54 53)" fill="#f3d55b"/>
    </g>
  </g>
</svg>
