<svg xmlns="http://www.w3.org/2000/svg" xmlns:xlink="http://www.w3.org/1999/xlink" width="56.219" height="76" viewBox="0 0 56.219 76">
  <defs>
    <linearGradient id="linear-gradient" x1="0.858" y1="0.86" x2="0.23" y2="0.931" gradientUnits="objectBoundingBox">
      <stop offset="0" stop-color="#ff4f19"/>
      <stop offset="1" stop-color="#db3f3d"/>
    </linearGradient>
  </defs>
  <g id="superquente" transform="translate(699 -1743)">
    <path id="Caminho_122" data-name="Caminho 122" d="M19.347-23s1.621,10.871,4.858,13.621c2.609,2.214,6.767-4.251,6.767-4.251S34.378-1.484,38.434.425s7.635-9.8,7.635-9.8,5.986,31.82,5.986,36.352A26.027,26.027,0,0,1,0,26.973C0,19.686,6.68-9.379,6.68-9.379s4.364,7.335,6.42,4.772C16.44-8.775,19.347-23,19.347-23Z" transform="translate(-694.836 1766)" fill="url(#linear-gradient)"/>
    <path id="Caminho_123" data-name="Caminho 123" d="M17.142-22.333s1.3,5.386,4.251,7.895c2.38,2.019,6.68-1.041,6.68-1.041S32.009-6.2,35.708-4.461s7.548-5.466,7.548-5.466,5.032,23.369,5.032,27.5c0,13.111-24.032,17.785-24.032,17.785S.876,22.75.876,9.639C2.228,3.631,6.057-10.6,6.057-10.6s4.785,4.49,6.66,2.152C15.763-12.253,17.142-22.333,17.142-22.333Z" transform="translate(-692.717 1774.79)" fill="#fcd435"/>
    <g id="mars_1_" data-name="mars (1)" transform="translate(-692.233 1765.384)">
      <path id="Caminho_110" data-name="Caminho 110" d="M14.938,47H14.92c.529.225,1.07.426,1.619.612l.145.048c.125.041.25.083.376.123q.3.1.611.185l.011,0h0a24.363,24.363,0,0,0,3.828.777q-.871-.825-1.659-1.733l-.446.2c-.584.266-1.157.526-1.714.75l-.233-.068c-.275-.082-.547-.17-.819-.261-.175-.059-.351-.115-.523-.178-.19-.068-.375-.145-.563-.217-.205-.08-.411-.16-.614-.245a10.955,10.955,0,0,0,3.79-1.265L18.8,45.7c.338.448.687.888,1.055,1.312a10.952,10.952,0,0,1,4.581-1.345,10.233,10.233,0,0,0,5.338-.926.812.812,0,0,0,.294-1.108.821.821,0,0,0-1.11-.3,8.972,8.972,0,0,1-4.454.709c-1.868-.072-3.816.8-5.709,1.665-3.091-4.095-2.252-8.771-2.252-14.3,0-.285.94-.762,2.84-.619.007,0,.011.006.018.008l4.464.987a.544.544,0,0,1,.153.976.815.815,0,0,0,.452,1.494A59.136,59.136,0,0,0,38.527,32.68a.815.815,0,0,0,.019-1.577l-1.661-.458,1.6-1.2c.011-.008.016-.02.026-.029.883-.22,1.73-.459,2.523-.72a.815.815,0,1,0-.508-1.55,37.4,37.4,0,0,1-3.99,1.053,60.23,60.23,0,0,1-12.066,1.156c-3.644,0,15.85-22.768,16.82-22.651A24.45,24.45,0,0,0,30.945.869L30.921.863q-.263-.072-.528-.138L30.329.709q-.248-.061-.5-.117l-.1-.022q-.234-.051-.469-.1L29.126.445c-.146-.028-.293-.056-.441-.082L28.514.335C28.377.312,28.24.29,28.1.269L27.9.241C27.768.223,27.64.2,27.511.188l-.24-.027c-.119-.014-.238-.028-.357-.039C26.822.112,26.729.105,26.637.1c-.109-.01-.218-.02-.327-.028S26.1.055,25.992.049,25.8.036,25.7.031c-.127-.006-.254-.01-.382-.014L25.086.008Q24.776,0,24.466,0A24.475,24.475,0,0,0,1.344,16.452q.071-.207.146-.413c.018.016.041.023.057.041,1.3,1.394,3.679,2.684,6.865,3.73a.816.816,0,0,1-.508,1.55,20.135,20.135,0,0,1-6.966-3.6c.124-.435.256-.868.4-1.293a24.427,24.427,0,0,0-1.34,8q0,.305.008.609c0,.068,0,.136.007.2,0,.134.009.268.015.4,0,.081.009.162.014.242.007.12.014.24.023.359.006.086.014.172.021.258.01.113.019.227.03.339.009.089.018.177.028.266.012.109.024.218.037.327.011.091.023.181.035.271q.021.159.044.317.02.138.042.275.024.154.051.308c.016.093.032.186.049.278s.038.2.057.3.037.188.057.282.042.193.063.289.042.191.064.286.045.185.067.277.048.2.073.293.046.169.069.254c.028.1.056.208.085.311.019.066.039.131.059.2q.2.678.438,1.339l.026.073c.049.135.1.27.152.4.016.043.032.086.049.128.051.13.1.259.156.388l.056.136c.054.129.109.257.165.385l.057.131q.087.195.177.388l.055.119q.094.2.191.4l.05.1q.1.205.209.408l.039.074q.114.215.231.428l.02.037A24.554,24.554,0,0,0,14.938,47ZM17.363,7.576a.854.854,0,0,1,1.158,0,.822.822,0,0,1,.237.579.792.792,0,0,1-.237.571.832.832,0,0,1-.579.244.819.819,0,0,1-.579-1.395Zm-6.676,3.232a1.931,1.931,0,0,1,2.52-.922,1.931,1.931,0,0,1,.232,2.673,1.931,1.931,0,0,1-2.52.922A1.931,1.931,0,0,1,10.687,10.809ZM5.671,28.015a1.57,1.57,0,0,1,.93-1.973,1.57,1.57,0,0,1,1.662,1.412,1.57,1.57,0,0,1-.93,1.973A1.57,1.57,0,0,1,5.671,28.015Z" fill="#db3f3d"/>
      <path id="Caminho_80" data-name="Caminho 80" d="M23.061,342.738q-.1-.2-.191-.4Q22.964,342.542,23.061,342.738Z" transform="translate(-20.539 -307.444)" fill="#ff4f19"/>
      <path id="Caminho_81" data-name="Caminho 81" d="M20.769,337.764q-.09-.193-.177-.388Q20.679,337.571,20.769,337.764Z" transform="translate(-18.493 -302.984)" fill="#ff4f19"/>
      <path id="Caminho_82" data-name="Caminho 82" d="M18.575,332.7c-.056-.128-.111-.256-.165-.385C18.464,332.446,18.519,332.574,18.575,332.7Z" transform="translate(-16.533 -298.44)" fill="#ff4f19"/>
      <path id="Caminho_83" data-name="Caminho 83" d="M16.487,327.559c-.053-.129-.106-.258-.156-.388C16.382,327.3,16.434,327.43,16.487,327.559Z" transform="translate(-14.666 -293.819)" fill="#ff4f19"/>
      <path id="Caminho_84" data-name="Caminho 84" d="M58.009,8.525A24.449,24.449,0,0,1,68.35,14.364a24.426,24.426,0,0,0-27.3,21.782h0v.014a62.356,62.356,0,0,0,10.477.855A60.232,60.232,0,0,0,63.6,35.858a37.423,37.423,0,0,0,3.99-1.053.815.815,0,0,1,.508,1.55c-.793.26-1.64.5-2.523.72-.01.008-.015.021-.026.029l-1.6,1.2,1.661.458a.815.815,0,0,1-.019,1.577A59.138,59.138,0,0,1,51.53,41.908a.816.816,0,0,1-.452-1.494.544.544,0,0,0-.153-.976l-4.464-.987c-.007,0-.011-.006-.018-.008-1.9-.142-3.752-.355-5.5-.649-.01.283-.016.566-.016.851A24.336,24.336,0,0,0,45.855,53.36c1.893-.862,3.841-1.737,5.709-1.665a8.973,8.973,0,0,0,4.454-.709.821.821,0,0,1,1.11.3.812.812,0,0,1-.294,1.108,10.233,10.233,0,0,1-5.338.926,10.952,10.952,0,0,0-4.581,1.345h0q.787.906,1.659,1.733a24.366,24.366,0,0,1-3.828-.777h0l-.011,0q-.307-.089-.611-.185c-.126-.04-.251-.082-.376-.123l-.145-.048c-.548-.186-1.089-.388-1.619-.612H42A24.557,24.557,0,0,1,30.136,44,24.468,24.468,0,1,0,58.009,8.525ZM54.792,31.306c-.026,0-.069,0-.1,0a5.392,5.392,0,0,0-2.711.789,6.78,6.78,0,0,1-3.351.946,7.938,7.938,0,0,1-1.307-.115.815.815,0,1,1,.268-1.609,5.045,5.045,0,0,0,3.649-.675,6.642,6.642,0,0,1,3.57-.967.816.816,0,0,1-.014,1.631Zm6.35-1.127c-.732.932-2.515,1.1-3.044,1.126h-.045a.815.815,0,0,1-.045-1.63,3.654,3.654,0,0,0,1.851-.506.816.816,0,0,1,1.282,1.008ZM48.031,41.663a.832.832,0,0,1-.579.244.817.817,0,1,1,.579-1.395.822.822,0,0,1,.236.579A.792.792,0,0,1,48.031,41.663Zm10.6,4.078a.832.832,0,0,1-.579.244.817.817,0,1,1,.579-1.395.822.822,0,0,1,.236.579A.792.792,0,0,1,58.633,45.741Zm6.524-17.952a.832.832,0,0,1-.579.244.817.817,0,1,1,.579-1.395.822.822,0,0,1,.237.579A.792.792,0,0,1,65.157,27.789Zm3.262,3.272a.832.832,0,0,1-.579.244.817.817,0,1,1,.579-1.395.822.822,0,0,1,.237.579A.792.792,0,0,1,68.419,31.062Zm-3.66-10.1a.794.794,0,0,1-.182.021.815.815,0,0,1-.181-1.61,35.9,35.9,0,0,0,6.565-2.111q.507.662.97,1.357A36.867,36.867,0,0,1,64.759,20.962Z" transform="translate(-27.064 -7.656)" fill="#ff4f19"/>
      <path id="Caminho_85" data-name="Caminho 85" d="M25.442,347.611q-.106-.2-.209-.408Q25.336,347.408,25.442,347.611Z" transform="translate(-22.661 -311.809)" fill="#ff4f19"/>
      <path id="Caminho_86" data-name="Caminho 86" d="M27.9,352.357q-.118-.213-.231-.428Q27.778,352.144,27.9,352.357Z" transform="translate(-24.844 -316.053)" fill="#ff4f19"/>
      <path id="Caminho_87" data-name="Caminho 87" d="M2.626,275.527q-.022-.137-.042-.275Q2.6,275.39,2.626,275.527Z" transform="translate(-2.321 -247.193)" fill="#ff4f19"/>
      <path id="Caminho_88" data-name="Caminho 88" d="M275.665,2.641c.138.021.276.043.413.066C275.94,2.684,275.8,2.662,275.665,2.641Z" transform="translate(-247.564 -2.372)" fill="#ff4f19"/>
      <path id="Caminho_89" data-name="Caminho 89" d="M281.394,3.568c.147.026.294.053.441.082C281.688,3.621,281.541,3.594,281.394,3.568Z" transform="translate(-252.708 -3.204)" fill="#ff4f19"/>
      <path id="Caminho_90" data-name="Caminho 90" d="M.309,252.153c0-.081-.01-.161-.014-.242C.3,251.992.3,252.073.309,252.153Z" transform="translate(-0.265 -226.231)" fill="#ff4f19"/>
      <path id="Caminho_91" data-name="Caminho 91" d="M.083,246.177c0-.068-.006-.136-.007-.2C.078,246.041.081,246.109.083,246.177Z" transform="translate(-0.068 -220.898)" fill="#ff4f19"/>
      <path id="Caminho_92" data-name="Caminho 92" d="M269.87,1.849c.129.016.257.034.385.052C270.127,1.883,270,1.865,269.87,1.849Z" transform="translate(-242.359 -1.661)" fill="#ff4f19"/>
      <path id="Caminho_93" data-name="Caminho 93" d="M246.08.077l.233.009Z" transform="translate(-220.994 -0.069)" fill="#ff4f19"/>
      <path id="Caminho_94" data-name="Caminho 94" d="M252.11.3c.1,0,.194.012.292.018C252.3.315,252.208.308,252.11.3Z" transform="translate(-226.41 -0.272)" fill="#ff4f19"/>
      <path id="Caminho_95" data-name="Caminho 95" d="M287.051,4.623q.235.047.469.1C287.364,4.687,287.208,4.654,287.051,4.623Z" transform="translate(-257.789 -4.152)" fill="#ff4f19"/>
      <path id="Caminho_96" data-name="Caminho 96" d="M292.635,5.8q.25.056.5.117Q292.885,5.861,292.635,5.8Z" transform="translate(-262.804 -5.213)" fill="#ff4f19"/>
      <path id="Caminho_97" data-name="Caminho 97" d="M298.142,7.107q.265.066.528.138Q298.407,7.173,298.142,7.107Z" transform="translate(-267.749 -6.383)" fill="#ff4f19"/>
      <path id="Caminho_98" data-name="Caminho 98" d="M1.839,269.758c-.012-.09-.024-.181-.035-.271C1.815,269.578,1.827,269.668,1.839,269.758Z" transform="translate(-1.62 -242.015)" fill="#ff4f19"/>
      <path id="Caminho_99" data-name="Caminho 99" d="M1.19,263.936c-.01-.089-.019-.177-.028-.266C1.171,263.759,1.18,263.847,1.19,263.936Z" transform="translate(-1.044 -236.791)" fill="#ff4f19"/>
      <path id="Caminho_100" data-name="Caminho 100" d="M.679,258.069c-.007-.086-.015-.172-.021-.258C.664,257.9.672,257.983.679,258.069Z" transform="translate(-0.591 -231.53)" fill="#ff4f19"/>
      <path id="Caminho_101" data-name="Caminho 101" d="M258.089.676c.109.008.218.018.327.028C258.307.694,258.2.684,258.089.676Z" transform="translate(-231.779 -0.607)" fill="#ff4f19"/>
      <path id="Caminho_102" data-name="Caminho 102" d="M7.084,298.042c-.025-.1-.049-.2-.073-.293C7.035,297.846,7.059,297.944,7.084,298.042Z" transform="translate(-6.296 -267.395)" fill="#ff4f19"/>
      <path id="Caminho_103" data-name="Caminho 103" d="M14.514,322.353c-.052-.134-.1-.269-.152-.4C14.411,322.084,14.463,322.219,14.514,322.353Z" transform="translate(-12.898 -289.129)" fill="#ff4f19"/>
      <path id="Caminho_104" data-name="Caminho 104" d="M8.489,303.427c-.03-.1-.057-.207-.085-.311C8.432,303.22,8.46,303.324,8.489,303.427Z" transform="translate(-7.547 -272.216)" fill="#ff4f19"/>
      <path id="Caminho_105" data-name="Caminho 105" d="M5.781,292.519c-.022-.095-.043-.19-.064-.286C5.738,292.328,5.759,292.424,5.781,292.519Z" transform="translate(-5.134 -262.443)" fill="#ff4f19"/>
      <path id="Caminho_106" data-name="Caminho 106" d="M10.253,309.432q-.238-.661-.438-1.339Q10.015,308.771,10.253,309.432Z" transform="translate(-8.814 -276.686)" fill="#ff4f19"/>
      <path id="Caminho_107" data-name="Caminho 107" d="M4.6,286.914c-.02-.094-.038-.188-.057-.282C4.562,286.726,4.58,286.82,4.6,286.914Z" transform="translate(-4.08 -257.413)" fill="#ff4f19"/>
      <path id="Caminho_108" data-name="Caminho 108" d="M3.547,281.25q-.026-.139-.049-.278Q3.522,281.111,3.547,281.25Z" transform="translate(-3.141 -252.33)" fill="#ff4f19"/>
      <path id="Caminho_109" data-name="Caminho 109" d="M264.01,1.192c.119.012.238.026.357.039C264.248,1.218,264.129,1.2,264.01,1.192Z" transform="translate(-237.097 -1.07)" fill="#ff4f19"/>
      <path id="Caminho_111" data-name="Caminho 111" d="M200.169,215.975a6.642,6.642,0,0,0-3.57.967,5.045,5.045,0,0,1-3.649.675.815.815,0,0,0-.268,1.609,7.939,7.939,0,0,0,1.307.115,6.78,6.78,0,0,0,3.351-.946,5.392,5.392,0,0,1,2.711-.789c.035,0,.078,0,.1,0a.816.816,0,0,0,.014-1.631Z" transform="translate(-172.427 -193.956)" fill="#db3f3d"/>
      <path id="Caminho_112" data-name="Caminho 112" d="M299.77,208.171a.815.815,0,0,0-1.145.137,3.654,3.654,0,0,1-1.851.506.815.815,0,0,0,.045,1.63h.045c.529-.029,2.312-.194,3.044-1.126A.816.816,0,0,0,299.77,208.171Z" transform="translate(-265.829 -186.793)" fill="#db3f3d"/>
      <ellipse id="Elipse_80" data-name="Elipse 80" cx="2.13" cy="1.631" rx="2.13" ry="1.631" transform="translate(14.582 10.763) rotate(122.471)" fill="#a03939"/>
      <ellipse id="Elipse_81" data-name="Elipse 81" cx="1.326" cy="1.732" rx="1.326" ry="1.732" transform="translate(5.306 26.322) rotate(-12.199)" fill="#a03939"/>
      <path id="Caminho_113" data-name="Caminho 113" d="M168.816,73.72a.832.832,0,0,0,.579-.244.793.793,0,0,0,.236-.571.823.823,0,0,0-.236-.579.819.819,0,1,0-.579,1.395Z" transform="translate(-150.874 -64.749)" fill="#a03939"/>
      <path id="Caminho_114" data-name="Caminho 114" d="M360.236,184.227a.816.816,0,0,0,.579,1.395.832.832,0,0,0,.579-.244.792.792,0,0,0,.237-.571.823.823,0,0,0-.237-.579A.854.854,0,0,0,360.236,184.227Z" transform="translate(-323.301 -165.243)" fill="#db3f3d"/>
      <path id="Caminho_115" data-name="Caminho 115" d="M392.236,216.326a.816.816,0,0,0,.579,1.395.832.832,0,0,0,.579-.244.792.792,0,0,0,.237-.571.823.823,0,0,0-.237-.579A.854.854,0,0,0,392.236,216.326Z" transform="translate(-352.039 -194.07)" fill="#db3f3d"/>
      <path id="Caminho_116" data-name="Caminho 116" d="M192.236,320.326a.816.816,0,0,0,.579,1.395.833.833,0,0,0,.579-.244.792.792,0,0,0,.236-.571.823.823,0,0,0-.236-.579A.854.854,0,0,0,192.236,320.326Z" transform="translate(-172.427 -287.468)" fill="#db3f3d"/>
      <path id="Caminho_117" data-name="Caminho 117" d="M296.236,360.326a.816.816,0,0,0,.579,1.395.832.832,0,0,0,.579-.244.791.791,0,0,0,.237-.571.823.823,0,0,0-.237-.579A.854.854,0,0,0,296.236,360.326Z" transform="translate(-265.826 -323.39)" fill="#db3f3d"/>
      <path id="Caminho_118" data-name="Caminho 118" d="M120.013,278.741a.815.815,0,0,0,.649.953c.323.062.658.115.989.171.019-.549.049-1.1.1-1.635,0,0,0-.007,0-.01h0c-.26-.045-.534-.08-.79-.128A.815.815,0,0,0,120.013,278.741Z" transform="translate(-107.765 -249.73)" fill="#a03939"/>
      <path id="Caminho_119" data-name="Caminho 119" d="M16.175,162.662a.816.816,0,0,0,.508-1.55c-3.186-1.047-5.561-2.337-6.865-3.73-.017-.018-.039-.025-.057-.041q-.075.205-.146.413l0,.012c-.145.426-.277.858-.4,1.293A20.132,20.132,0,0,0,16.175,162.662Z" transform="translate(-8.27 -141.302)" fill="#a03939"/>
      <path id="Caminho_120" data-name="Caminho 120" d="M150.4,448.317l-.067.031a10.955,10.955,0,0,1-3.79,1.266c.2.086.408.165.614.245.187.073.373.149.563.217.173.063.349.119.523.178.271.091.543.179.819.261l.233.068c.557-.225,1.131-.485,1.714-.75l.446-.2h0C151.086,449.205,150.737,448.765,150.4,448.317Z" transform="translate(-131.603 -402.615)" fill="#a03939"/>
      <path id="Caminho_121" data-name="Caminho 121" d="M367.19,94.224a35.894,35.894,0,0,1-6.565,2.111.815.815,0,0,0,.181,1.61.8.8,0,0,0,.182-.021,36.866,36.866,0,0,0,7.171-2.344Q367.7,94.885,367.19,94.224Z" transform="translate(-323.294 -84.619)" fill="#db3f3d"/>
    </g>
    <circle id="Elipse_83" data-name="Elipse 83" cx="1.041" cy="1.041" r="1.041" transform="translate(-693.794 1807.089)" fill="#fcd435"/>
    <circle id="Elipse_84" data-name="Elipse 84" cx="1.041" cy="1.041" r="1.041" transform="translate(-699 1799.802)" fill="#fcd435"/>
    <g id="mars_1_2" data-name="mars (1)" transform="translate(-692.233 1765.384)">
      <path id="Caminho_110-2" data-name="Caminho 110" d="M14.938,47H14.92c.529.225,1.07.426,1.619.612l.145.048c.125.041.25.083.376.123q.3.1.611.185l.011,0h0a24.363,24.363,0,0,0,3.828.777q-.871-.825-1.659-1.733l-.446.2c-.584.266-1.157.526-1.714.75l-.233-.068c-.275-.082-.547-.17-.819-.261-.175-.059-.351-.115-.523-.178-.19-.068-.375-.145-.563-.217-.205-.08-.411-.16-.614-.245a10.955,10.955,0,0,0,3.79-1.265L18.8,45.7c.338.448.687.888,1.055,1.312a10.952,10.952,0,0,1,4.581-1.345,10.233,10.233,0,0,0,5.338-.926.812.812,0,0,0,.294-1.108.821.821,0,0,0-1.11-.3,8.972,8.972,0,0,1-4.454.709c-1.868-.072-3.816.8-5.709,1.665-3.091-4.095-2.252-8.771-2.252-14.3,0-.285.94-.762,2.84-.619.007,0,.011.006.018.008l4.464.987a.544.544,0,0,1,.153.976.815.815,0,0,0,.452,1.494A59.136,59.136,0,0,0,38.527,32.68a.815.815,0,0,0,.019-1.577l-1.661-.458,1.6-1.2c.011-.008.016-.02.026-.029.883-.22,1.73-.459,2.523-.72a.815.815,0,1,0-.508-1.55,37.4,37.4,0,0,1-3.99,1.053,60.23,60.23,0,0,1-12.066,1.156c-3.644,0,15.85-22.768,16.82-22.651A24.45,24.45,0,0,0,30.945.869L30.921.863q-.263-.072-.528-.138L30.329.709q-.248-.061-.5-.117l-.1-.022q-.234-.051-.469-.1L29.126.445c-.146-.028-.293-.056-.441-.082L28.514.335C28.377.312,28.24.29,28.1.269L27.9.241C27.768.223,27.64.2,27.511.188l-.24-.027c-.119-.014-.238-.028-.357-.039C26.822.112,26.729.105,26.637.1c-.109-.01-.218-.02-.327-.028S26.1.055,25.992.049,25.8.036,25.7.031c-.127-.006-.254-.01-.382-.014L25.086.008Q24.776,0,24.466,0A24.475,24.475,0,0,0,1.344,16.452q.071-.207.146-.413c.018.016.041.023.057.041,1.3,1.394,3.679,2.684,6.865,3.73a.816.816,0,0,1-.508,1.55,20.135,20.135,0,0,1-6.966-3.6c.124-.435.256-.868.4-1.293a24.427,24.427,0,0,0-1.34,8q0,.305.008.609c0,.068,0,.136.007.2,0,.134.009.268.015.4,0,.081.009.162.014.242.007.12.014.24.023.359.006.086.014.172.021.258.01.113.019.227.03.339.009.089.018.177.028.266.012.109.024.218.037.327.011.091.023.181.035.271q.021.159.044.317.02.138.042.275.024.154.051.308c.016.093.032.186.049.278s.038.2.057.3.037.188.057.282.042.193.063.289.042.191.064.286.045.185.067.277.048.2.073.293.046.169.069.254c.028.1.056.208.085.311.019.066.039.131.059.2q.2.678.438,1.339l.026.073c.049.135.1.27.152.4.016.043.032.086.049.128.051.13.1.259.156.388l.056.136c.054.129.109.257.165.385l.057.131q.087.195.177.388l.055.119q.094.2.191.4l.05.1q.1.205.209.408l.039.074q.114.215.231.428l.02.037A24.554,24.554,0,0,0,14.938,47ZM17.363,7.576a.854.854,0,0,1,1.158,0,.822.822,0,0,1,.237.579.792.792,0,0,1-.237.571.832.832,0,0,1-.579.244.819.819,0,0,1-.579-1.395Zm-6.676,3.232a1.931,1.931,0,0,1,2.52-.922,1.931,1.931,0,0,1,.232,2.673,1.931,1.931,0,0,1-2.52.922A1.931,1.931,0,0,1,10.687,10.809ZM5.671,28.015a1.57,1.57,0,0,1,.93-1.973,1.57,1.57,0,0,1,1.662,1.412,1.57,1.57,0,0,1-.93,1.973A1.57,1.57,0,0,1,5.671,28.015Z" fill="#db3f3d"/>
      <path id="Caminho_80-2" data-name="Caminho 80" d="M23.061,342.738q-.1-.2-.191-.4Q22.964,342.542,23.061,342.738Z" transform="translate(-20.539 -307.444)" fill="#ff4f19"/>
      <path id="Caminho_81-2" data-name="Caminho 81" d="M20.769,337.764q-.09-.193-.177-.388Q20.679,337.571,20.769,337.764Z" transform="translate(-18.493 -302.984)" fill="#ff4f19"/>
      <path id="Caminho_82-2" data-name="Caminho 82" d="M18.575,332.7c-.056-.128-.111-.256-.165-.385C18.464,332.446,18.519,332.574,18.575,332.7Z" transform="translate(-16.533 -298.44)" fill="#ff4f19"/>
      <path id="Caminho_83-2" data-name="Caminho 83" d="M16.487,327.559c-.053-.129-.106-.258-.156-.388C16.382,327.3,16.434,327.43,16.487,327.559Z" transform="translate(-14.666 -293.819)" fill="#ff4f19"/>
      <path id="Caminho_84-2" data-name="Caminho 84" d="M58.009,8.525A24.449,24.449,0,0,1,68.35,14.364a24.426,24.426,0,0,0-27.3,21.782h0v.014a62.356,62.356,0,0,0,10.477.855A60.232,60.232,0,0,0,63.6,35.858a37.423,37.423,0,0,0,3.99-1.053.815.815,0,0,1,.508,1.55c-.793.26-1.64.5-2.523.72-.01.008-.015.021-.026.029l-1.6,1.2,1.661.458a.815.815,0,0,1-.019,1.577A59.138,59.138,0,0,1,51.53,41.908a.816.816,0,0,1-.452-1.494.544.544,0,0,0-.153-.976l-4.464-.987c-.007,0-.011-.006-.018-.008-1.9-.142-3.752-.355-5.5-.649-.01.283-.016.566-.016.851A24.336,24.336,0,0,0,45.855,53.36c1.893-.862,3.841-1.737,5.709-1.665a8.973,8.973,0,0,0,4.454-.709.821.821,0,0,1,1.11.3.812.812,0,0,1-.294,1.108,10.233,10.233,0,0,1-5.338.926,10.952,10.952,0,0,0-4.581,1.345h0q.787.906,1.659,1.733a24.366,24.366,0,0,1-3.828-.777h0l-.011,0q-.307-.089-.611-.185c-.126-.04-.251-.082-.376-.123l-.145-.048c-.548-.186-1.089-.388-1.619-.612H42A24.557,24.557,0,0,1,30.136,44,24.468,24.468,0,1,0,58.009,8.525ZM54.792,31.306c-.026,0-.069,0-.1,0a5.392,5.392,0,0,0-2.711.789,6.78,6.78,0,0,1-3.351.946,7.938,7.938,0,0,1-1.307-.115.815.815,0,1,1,.268-1.609,5.045,5.045,0,0,0,3.649-.675,6.642,6.642,0,0,1,3.57-.967.816.816,0,0,1-.014,1.631Zm6.35-1.127c-.732.932-2.515,1.1-3.044,1.126h-.045a.815.815,0,0,1-.045-1.63,3.654,3.654,0,0,0,1.851-.506.816.816,0,0,1,1.282,1.008ZM48.031,41.663a.832.832,0,0,1-.579.244.817.817,0,1,1,.579-1.395.822.822,0,0,1,.236.579A.792.792,0,0,1,48.031,41.663Zm10.6,4.078a.832.832,0,0,1-.579.244.817.817,0,1,1,.579-1.395.822.822,0,0,1,.236.579A.792.792,0,0,1,58.633,45.741Zm6.524-17.952a.832.832,0,0,1-.579.244.817.817,0,1,1,.579-1.395.822.822,0,0,1,.237.579A.792.792,0,0,1,65.157,27.789Zm3.262,3.272a.832.832,0,0,1-.579.244.817.817,0,1,1,.579-1.395.822.822,0,0,1,.237.579A.792.792,0,0,1,68.419,31.062Zm-3.66-10.1a.794.794,0,0,1-.182.021.815.815,0,0,1-.181-1.61,35.9,35.9,0,0,0,6.565-2.111q.507.662.97,1.357A36.867,36.867,0,0,1,64.759,20.962Z" transform="translate(-27.064 -7.656)" fill="#ff4f19"/>
      <path id="Caminho_85-2" data-name="Caminho 85" d="M25.442,347.611q-.106-.2-.209-.408Q25.336,347.408,25.442,347.611Z" transform="translate(-22.661 -311.809)" fill="#ff4f19"/>
      <path id="Caminho_86-2" data-name="Caminho 86" d="M27.9,352.357q-.118-.213-.231-.428Q27.778,352.144,27.9,352.357Z" transform="translate(-24.844 -316.053)" fill="#ff4f19"/>
      <path id="Caminho_87-2" data-name="Caminho 87" d="M2.626,275.527q-.022-.137-.042-.275Q2.6,275.39,2.626,275.527Z" transform="translate(-2.321 -247.193)" fill="#ff4f19"/>
      <path id="Caminho_88-2" data-name="Caminho 88" d="M275.665,2.641c.138.021.276.043.413.066C275.94,2.684,275.8,2.662,275.665,2.641Z" transform="translate(-247.564 -2.372)" fill="#ff4f19"/>
      <path id="Caminho_89-2" data-name="Caminho 89" d="M281.394,3.568c.147.026.294.053.441.082C281.688,3.621,281.541,3.594,281.394,3.568Z" transform="translate(-252.708 -3.204)" fill="#ff4f19"/>
      <path id="Caminho_90-2" data-name="Caminho 90" d="M.309,252.153c0-.081-.01-.161-.014-.242C.3,251.992.3,252.073.309,252.153Z" transform="translate(-0.265 -226.231)" fill="#ff4f19"/>
      <path id="Caminho_91-2" data-name="Caminho 91" d="M.083,246.177c0-.068-.006-.136-.007-.2C.078,246.041.081,246.109.083,246.177Z" transform="translate(-0.068 -220.898)" fill="#ff4f19"/>
      <path id="Caminho_92-2" data-name="Caminho 92" d="M269.87,1.849c.129.016.257.034.385.052C270.127,1.883,270,1.865,269.87,1.849Z" transform="translate(-242.359 -1.661)" fill="#ff4f19"/>
      <path id="Caminho_93-2" data-name="Caminho 93" d="M246.08.077l.233.009Z" transform="translate(-220.994 -0.069)" fill="#ff4f19"/>
      <path id="Caminho_94-2" data-name="Caminho 94" d="M252.11.3c.1,0,.194.012.292.018C252.3.315,252.208.308,252.11.3Z" transform="translate(-226.41 -0.272)" fill="#ff4f19"/>
      <path id="Caminho_95-2" data-name="Caminho 95" d="M287.051,4.623q.235.047.469.1C287.364,4.687,287.208,4.654,287.051,4.623Z" transform="translate(-257.789 -4.152)" fill="#ff4f19"/>
      <path id="Caminho_96-2" data-name="Caminho 96" d="M292.635,5.8q.25.056.5.117Q292.885,5.861,292.635,5.8Z" transform="translate(-262.804 -5.213)" fill="#ff4f19"/>
      <path id="Caminho_97-2" data-name="Caminho 97" d="M298.142,7.107q.265.066.528.138Q298.407,7.173,298.142,7.107Z" transform="translate(-267.749 -6.383)" fill="#ff4f19"/>
      <path id="Caminho_98-2" data-name="Caminho 98" d="M1.839,269.758c-.012-.09-.024-.181-.035-.271C1.815,269.578,1.827,269.668,1.839,269.758Z" transform="translate(-1.62 -242.015)" fill="#ff4f19"/>
      <path id="Caminho_99-2" data-name="Caminho 99" d="M1.19,263.936c-.01-.089-.019-.177-.028-.266C1.171,263.759,1.18,263.847,1.19,263.936Z" transform="translate(-1.044 -236.791)" fill="#ff4f19"/>
      <path id="Caminho_100-2" data-name="Caminho 100" d="M.679,258.069c-.007-.086-.015-.172-.021-.258C.664,257.9.672,257.983.679,258.069Z" transform="translate(-0.591 -231.53)" fill="#ff4f19"/>
      <path id="Caminho_101-2" data-name="Caminho 101" d="M258.089.676c.109.008.218.018.327.028C258.307.694,258.2.684,258.089.676Z" transform="translate(-231.779 -0.607)" fill="#ff4f19"/>
      <path id="Caminho_102-2" data-name="Caminho 102" d="M7.084,298.042c-.025-.1-.049-.2-.073-.293C7.035,297.846,7.059,297.944,7.084,298.042Z" transform="translate(-6.296 -267.395)" fill="#ff4f19"/>
      <path id="Caminho_103-2" data-name="Caminho 103" d="M14.514,322.353c-.052-.134-.1-.269-.152-.4C14.411,322.084,14.463,322.219,14.514,322.353Z" transform="translate(-12.898 -289.129)" fill="#ff4f19"/>
      <path id="Caminho_104-2" data-name="Caminho 104" d="M8.489,303.427c-.03-.1-.057-.207-.085-.311C8.432,303.22,8.46,303.324,8.489,303.427Z" transform="translate(-7.547 -272.216)" fill="#ff4f19"/>
      <path id="Caminho_105-2" data-name="Caminho 105" d="M5.781,292.519c-.022-.095-.043-.19-.064-.286C5.738,292.328,5.759,292.424,5.781,292.519Z" transform="translate(-5.134 -262.443)" fill="#ff4f19"/>
      <path id="Caminho_106-2" data-name="Caminho 106" d="M10.253,309.432q-.238-.661-.438-1.339Q10.015,308.771,10.253,309.432Z" transform="translate(-8.814 -276.686)" fill="#ff4f19"/>
      <path id="Caminho_107-2" data-name="Caminho 107" d="M4.6,286.914c-.02-.094-.038-.188-.057-.282C4.562,286.726,4.58,286.82,4.6,286.914Z" transform="translate(-4.08 -257.413)" fill="#ff4f19"/>
      <path id="Caminho_108-2" data-name="Caminho 108" d="M3.547,281.25q-.026-.139-.049-.278Q3.522,281.111,3.547,281.25Z" transform="translate(-3.141 -252.33)" fill="#ff4f19"/>
      <path id="Caminho_109-2" data-name="Caminho 109" d="M264.01,1.192c.119.012.238.026.357.039C264.248,1.218,264.129,1.2,264.01,1.192Z" transform="translate(-237.097 -1.07)" fill="#ff4f19"/>
      <path id="Caminho_111-2" data-name="Caminho 111" d="M200.169,215.975a6.642,6.642,0,0,0-3.57.967,5.045,5.045,0,0,1-3.649.675.815.815,0,0,0-.268,1.609,7.939,7.939,0,0,0,1.307.115,6.78,6.78,0,0,0,3.351-.946,5.392,5.392,0,0,1,2.711-.789c.035,0,.078,0,.1,0a.816.816,0,0,0,.014-1.631Z" transform="translate(-172.427 -193.956)" fill="#db3f3d"/>
      <path id="Caminho_112-2" data-name="Caminho 112" d="M299.77,208.171a.815.815,0,0,0-1.145.137,3.654,3.654,0,0,1-1.851.506.815.815,0,0,0,.045,1.63h.045c.529-.029,2.312-.194,3.044-1.126A.816.816,0,0,0,299.77,208.171Z" transform="translate(-265.829 -186.793)" fill="#db3f3d"/>
      <ellipse id="Elipse_80-2" data-name="Elipse 80" cx="2.13" cy="1.631" rx="2.13" ry="1.631" transform="translate(14.582 10.763) rotate(122.471)" fill="#a03939"/>
      <ellipse id="Elipse_81-2" data-name="Elipse 81" cx="1.326" cy="1.732" rx="1.326" ry="1.732" transform="translate(5.306 26.322) rotate(-12.199)" fill="#a03939"/>
      <path id="Caminho_113-2" data-name="Caminho 113" d="M168.816,73.72a.832.832,0,0,0,.579-.244.793.793,0,0,0,.236-.571.823.823,0,0,0-.236-.579.819.819,0,1,0-.579,1.395Z" transform="translate(-150.874 -64.749)" fill="#a03939"/>
      <path id="Caminho_114-2" data-name="Caminho 114" d="M360.236,184.227a.816.816,0,0,0,.579,1.395.832.832,0,0,0,.579-.244.792.792,0,0,0,.237-.571.823.823,0,0,0-.237-.579A.854.854,0,0,0,360.236,184.227Z" transform="translate(-323.301 -165.243)" fill="#db3f3d"/>
      <path id="Caminho_115-2" data-name="Caminho 115" d="M392.236,216.326a.816.816,0,0,0,.579,1.395.832.832,0,0,0,.579-.244.792.792,0,0,0,.237-.571.823.823,0,0,0-.237-.579A.854.854,0,0,0,392.236,216.326Z" transform="translate(-352.039 -194.07)" fill="#db3f3d"/>
      <path id="Caminho_116-2" data-name="Caminho 116" d="M192.236,320.326a.816.816,0,0,0,.579,1.395.833.833,0,0,0,.579-.244.792.792,0,0,0,.236-.571.823.823,0,0,0-.236-.579A.854.854,0,0,0,192.236,320.326Z" transform="translate(-172.427 -287.468)" fill="#db3f3d"/>
      <path id="Caminho_117-2" data-name="Caminho 117" d="M296.236,360.326a.816.816,0,0,0,.579,1.395.832.832,0,0,0,.579-.244.791.791,0,0,0,.237-.571.823.823,0,0,0-.237-.579A.854.854,0,0,0,296.236,360.326Z" transform="translate(-265.826 -323.39)" fill="#db3f3d"/>
      <path id="Caminho_118-2" data-name="Caminho 118" d="M120.013,278.741a.815.815,0,0,0,.649.953c.323.062.658.115.989.171.019-.549.049-1.1.1-1.635,0,0,0-.007,0-.01h0c-.26-.045-.534-.08-.79-.128A.815.815,0,0,0,120.013,278.741Z" transform="translate(-107.765 -249.73)" fill="#a03939"/>
      <path id="Caminho_119-2" data-name="Caminho 119" d="M16.175,162.662a.816.816,0,0,0,.508-1.55c-3.186-1.047-5.561-2.337-6.865-3.73-.017-.018-.039-.025-.057-.041q-.075.205-.146.413l0,.012c-.145.426-.277.858-.4,1.293A20.132,20.132,0,0,0,16.175,162.662Z" transform="translate(-8.27 -141.302)" fill="#a03939"/>
      <path id="Caminho_120-2" data-name="Caminho 120" d="M150.4,448.317l-.067.031a10.955,10.955,0,0,1-3.79,1.266c.2.086.408.165.614.245.187.073.373.149.563.217.173.063.349.119.523.178.271.091.543.179.819.261l.233.068c.557-.225,1.131-.485,1.714-.75l.446-.2h0C151.086,449.205,150.737,448.765,150.4,448.317Z" transform="translate(-131.603 -402.615)" fill="#a03939"/>
      <path id="Caminho_121-2" data-name="Caminho 121" d="M367.19,94.224a35.894,35.894,0,0,1-6.565,2.111.815.815,0,0,0,.181,1.61.8.8,0,0,0,.182-.021,36.866,36.866,0,0,0,7.171-2.344Q367.7,94.885,367.19,94.224Z" transform="translate(-323.294 -84.619)" fill="#db3f3d"/>
    </g>
  </g>
</svg>
