<svg xmlns="http://www.w3.org/2000/svg" width="58" height="58" viewBox="0 0 58 58">
  <g id="temperado" transform="translate(704 -1041)">
    <g id="mars" transform="translate(-704 1041)">
      <path id="Caminho_42" data-name="Caminho 42" d="M41.618,29a1,1,0,0,1,1-1H57.975A28.888,28.888,0,0,0,56.2,18.926a.991.991,0,0,1-.365.074H31.263a1,1,0,0,1,0-2H55.4a28.88,28.88,0,0,0-2.554-4.5A.985.985,0,0,1,52,13H42a1,1,0,0,1,0-2h9.729A28.991,28.991,0,0,0,2.6,17h22.06a1,1,0,1,1,0,2H2.166a.982.982,0,0,1-.365-.074A28.888,28.888,0,0,0,.025,28H8.737a1,1,0,0,1,0,2H.025A28.874,28.874,0,0,0,2.2,40.087.983.983,0,0,1,2.6,40H22.943a1,1,0,0,1,0,2H3.079a29.112,29.112,0,0,0,7.493,9.392A.979.979,0,0,1,11.345,51H32.806a1,1,0,0,1,0,2H12.719a29.007,29.007,0,0,0,32.562,0H39.2a1,1,0,0,1,0-2h7.452a.982.982,0,0,1,.774.392A29.109,29.109,0,0,0,54.922,42H29.174a1,1,0,0,1,0-2H55.4a.994.994,0,0,1,.4.086A28.868,28.868,0,0,0,57.974,30H42.618A1,1,0,0,1,41.618,29Z" fill="#c68630"/>
      <circle id="Elipse_12" data-name="Elipse 12" cx="20.5" cy="20.5" r="20.5" transform="translate(3 5)" fill="#738534"/>
      <path id="Caminho_60" data-name="Caminho 60" d="M12,0A12,12,0,1,1,0,12,12,12,0,0,1,12,0Z" transform="translate(9 12)" fill="#a2bb4b"/>
      <path id="Caminho_43" data-name="Caminho 43" d="M29.174,40a1,1,0,0,0,0,2H54.921c.315-.626.61-1.263.879-1.914A.991.991,0,0,0,55.4,40Z" fill="#fac176"/>
      <path id="Caminho_44" data-name="Caminho 44" d="M23.943,41a1,1,0,0,0-1-1H2.6a.978.978,0,0,0-.4.087c.269.65.564,1.287.879,1.913H22.943A1,1,0,0,0,23.943,41Z" fill="#f18d46"/>
      <path id="Caminho_45" data-name="Caminho 45" d="M9.737,29a1,1,0,0,0-1-1H.025C.014,28.333,0,28.665,0,29s.014.667.025,1H8.737A1,1,0,0,0,9.737,29Z" fill="#f3d55b"/>
      <path id="Caminho_46" data-name="Caminho 46" d="M41,12a1,1,0,0,0,1,1H52a.985.985,0,0,0,.845-.5q-.534-.769-1.117-1.5H42A1,1,0,0,0,41,12Z" fill="#f09372"/>
      <path id="Caminho_47" data-name="Caminho 47" d="M57.975,28H42.618a1,1,0,0,0,0,2H57.975c.011-.333.025-.665.025-1S57.986,28.333,57.975,28Z" fill="#f29c1f"/>
      <path id="Caminho_48" data-name="Caminho 48" d="M33.806,52a1,1,0,0,0-1-1H11.345a.982.982,0,0,0-.774.392q1.035.852,2.148,1.608H32.806A1,1,0,0,0,33.806,52Z" fill="#fac176"/>
      <path id="Caminho_49" data-name="Caminho 49" d="M46.655,51H39.2a1,1,0,0,0,0,2H45.28q1.112-.756,2.148-1.608A.977.977,0,0,0,46.655,51Z" fill="#f18d46"/>
      <path id="Caminho_50" data-name="Caminho 50" d="M30.263,18a1,1,0,0,0,1,1H55.835a.991.991,0,0,0,.365-.074c-.243-.655-.513-1.3-.8-1.926H31.263A1,1,0,0,0,30.263,18Z" fill="#fac176"/>
      <path id="Caminho_51" data-name="Caminho 51" d="M24.661,19a1,1,0,1,0,0-2H2.6c-.287.631-.558,1.272-.8,1.926A.992.992,0,0,0,2.166,19Z" fill="#f3d55b"/>
      <g id="Agrupar_4" data-name="Agrupar 4">
        <circle id="Elipse_14" data-name="Elipse 14" cx="1" cy="1" r="1" transform="translate(3 3)" fill="#f3d55b"/>
        <circle id="Elipse_15" data-name="Elipse 15" cx="1" cy="1" r="1" transform="translate(6 54)" fill="#f3d55b"/>
        <circle id="Elipse_16" data-name="Elipse 16" cx="1" cy="1" r="1" transform="translate(1 47)" fill="#f3d55b"/>
        <circle id="Elipse_17" data-name="Elipse 17" cx="1" cy="1" r="1" transform="translate(12)" fill="#f3d55b"/>
        <circle id="Elipse_18" data-name="Elipse 18" cx="1" cy="1" r="1" transform="translate(52 3)" fill="#f3d55b"/>
      </g>
      <path id="Caminho_52" data-name="Caminho 52" d="M35.625,28H15.349a1,1,0,1,0,0,2H35.626a1,1,0,1,0,0-2Z" fill="#f3d55b"/>
      <path id="Caminho_53" data-name="Caminho 53" d="M42,34H21.723a1,1,0,1,0,0,2H42a1,1,0,0,0,0-2Z" fill="#f0c419"/>
      <path id="Caminho_54" data-name="Caminho 54" d="M36.277,47H16a1,1,0,0,1,0-2H36.277a1,1,0,1,1,0,2Z" fill="#fac176"/>
      <path id="Caminho_55" data-name="Caminho 55" d="M34,24H24a1,1,0,0,1,0-2H34a1,1,0,0,1,0,2Z" fill="#f3d55b"/>
      <path id="Caminho_56" data-name="Caminho 56" d="M15,22H5a1,1,0,0,0,0,2H15a1,1,0,0,0,0-2Z" fill="#f0c419"/>
      <path id="Caminho_57" data-name="Caminho 57" d="M33,13H23a1,1,0,0,1,0-2H33a1,1,0,0,1,0,2Z" fill="#f3d55b"/>
      <path id="Caminho_58" data-name="Caminho 58" d="M26.623,7H16.206a1,1,0,1,1,0-2H26.623a1,1,0,0,1,0,2Z" fill="#f3d55b"/>
      <path id="Caminho_59" data-name="Caminho 59" d="M41.9,7H33.567a1,1,0,0,1,0-2H41.9a1,1,0,0,1,0,2Z" fill="#f3d55b"/>
    </g>
  </g>
</svg>
