<svg xmlns="http://www.w3.org/2000/svg" width="59" height="59" viewBox="0 0 59 59">
  <g id="tropical" transform="translate(697 -1114)">
    <g id="planet-earth" transform="translate(-697 1114)">
      <circle id="Elipse_19" data-name="Elipse 19" cx="29" cy="29" r="29" transform="translate(0 1)" fill="#0dd5ac"/>
      <g id="Agrupar_5" data-name="Agrupar 5">
        <path id="Caminho_61" data-name="Caminho 61" d="M29,1A28.9,28.9,0,0,0,17.647,3.308c-.159.949-.952,2.57-.928,3.087.112.022,7.373-7.4,6.472-2.39-.581,3.225-6.517,3.206-6.262,6.453C23.165,12.9,25.34,5.816,30.637,5.845c1.767.01,6.292-2.784,7.155-2.215,3.5,2.3-.8,10.467-3.474,7.75-2.572-2.572-6.242.9-6.077,4.912,1.337.06,1.908-3.8,3.11-2.51,1.324,1.417.846,4.27-.986,4.925s-9.077-4.89-7.3-.684c1.954,4.668-5.854,8.275,2.028,6.393,3.716-.891,2.481,1.937,4.234,3.286,2.088,1.6,1.164-2.214,2.686-1.633,2.215.857-.381,3.065,3.088,1.462,4.069-1.856,2.54,1.038,3.786,2.93,2.336,3.532,8.077,6.922,11.086,2.254.709-1.1.254-9.807,4.72-3.967,2.836,3.71,1.863-4.383,2.247-6.509A29,29,0,0,0,29,1Z" fill="#24ae5f"/>
      </g>
      <path id="Caminho_62" data-name="Caminho 62" d="M32.919,43.082l-5.348-4.008-3.585.141-3.719-1.17-2.911-2.007-6.6,1.526L8.03,38.881,5,42.963l1.072,4.784q.459.593.949,1.161l5.608,2.618,3.785.511,2.252,4.622.068.465a29.094,29.094,0,0,0,17.49.968l.761-4.544,3.459-2.807,1.437-4.481-7.222-.03Z" fill="#fac176"/>
      <path id="Caminho_63" data-name="Caminho 63" d="M.375,34.647c.138-.012.156-.024.168-.036C1.84,33.315,2.92,33.1,4,31.153s-.216-1.945,0-5.187-.216-1.729,0-5.187c.078-1.244-.053-1.928-1.565-2.417A29.008,29.008,0,0,0,.375,34.647Z" fill="#88c057"/>
      <path id="Caminho_64" data-name="Caminho 64" d="M30,54c-1.083-.083-5.083-1.333-6-3s-2.917-4.5-3-4c-.057.34-9.111-2.743-15.331-4.938l-.669.9,1.072,4.784q.459.593.949,1.161s1.053,1.858,4.879,4.543a29.14,29.14,0,0,0,24.324,4.641l.577-3.445c-.509-.159-1.1-.369-1.8-.647C32.25,52.917,31.083,54.083,30,54Z" fill="#5c9f40"/>
      <path id="Caminho_65" data-name="Caminho 65" d="M40.444,50.741l1.437-4.481-7.222-.03-1.741-3.148L27.57,39.074l-3.585.141-3.719-1.17-2.911-2.007-6.6,1.526L8.03,38.881l-2.361,3.18C11.889,44.257,20.943,47.34,21,47c.083-.5,2.083,2.333,3,4s4.917,2.917,6,3,2.25-1.083,5,0c.705.278,1.292.488,1.8.647l.184-1.1Z" fill="#88c057"/>
      <path id="Caminho_66" data-name="Caminho 66" d="M39.925,3.153c-.194,3.66-.337,6.305-.337,6.305L34,15.046s5.238,7.508,5.588,8.381,4.714,1.921,5.588,1.4,4.191-3.318,5.588-1.4c.972,1.337.847,2.5,1.445,3.325a2.524,2.524,0,0,1,1.569.93c.908.272,1.943.539,2.865.762.306-1.79.079-4.983.3-6.2A29.064,29.064,0,0,0,39.925,3.153Z" fill="#88c057"/>
      <path id="Caminho_67" data-name="Caminho 67" d="M43.33,4.806C43.148,8.26,43,11,43,11l-4,4s3.75,5.375,4,6,3.375,1.375,4,1,3-2.375,4-1,.375,2.5,2,3c1.373.423,3.267.842,3.825.962a20.316,20.316,0,0,1,.116-2.723A29.051,29.051,0,0,0,43.33,4.806Z" fill="#5c9f40"/>
      <circle id="Elipse_20" data-name="Elipse 20" cx="1" cy="1" r="1" transform="translate(1 5)" fill="#f3d55b"/>
      <circle id="Elipse_21" data-name="Elipse 21" cx="1" cy="1" r="1" transform="translate(57)" fill="#f3d55b"/>
      <circle id="Elipse_22" data-name="Elipse 22" cx="1" cy="1" r="1" transform="translate(2 49)" fill="#f3d55b"/>
      <circle id="Elipse_23" data-name="Elipse 23" cx="1" cy="1" r="1" transform="translate(1 56)" fill="#f3d55b"/>
      <circle id="Elipse_24" data-name="Elipse 24" cx="1" cy="1" r="1" transform="translate(55 7)" fill="#f3d55b"/>
      <circle id="Elipse_25" data-name="Elipse 25" cx="1" cy="1" r="1" transform="translate(46 2)" fill="#f3d55b"/>
    </g>
  </g>
</svg>
