<svg xmlns="http://www.w3.org/2000/svg" width="67.82" height="71.618" viewBox="0 0 67.82 71.618">
  <g id="chuvoso" transform="translate(906.5 -1547)">
    <g id="jupiter" transform="translate(-906.5 1547)">
      <circle id="Elipse_93" data-name="Elipse 93" cx="28.756" cy="28.756" r="28.756" transform="translate(5.969 1.085)" fill="#bdc3c4"/>
      <path id="Caminho_171" data-name="Caminho 171" d="M20.617,0A20.617,20.617,0,1,1,0,20.617,20.617,20.617,0,0,1,20.617,0Z" transform="translate(9.224 7.596)" fill="#838786"/>
      <circle id="Elipse_2" data-name="Elipse 2" cx="20.075" cy="20.075" r="20.075" transform="translate(8.139 5.426)" fill="#9faeac"/>
      <path id="Caminho_40" data-name="Caminho 40" d="M43,10.34H40.565a.056.056,0,0,1-.022-.109A2.174,2.174,0,0,0,42,7.806,2.252,2.252,0,0,0,39.746,6H34.436a2.17,2.17,0,0,0-2.169,2.117.054.054,0,0,1-.053.053H29.127A2.252,2.252,0,0,0,26.87,9.976,2.174,2.174,0,0,0,28.329,12.4a.056.056,0,0,1-.022.109H24.786a2.252,2.252,0,0,0-2.257,1.806,2.172,2.172,0,0,0,2.141,2.535H35.521a2.17,2.17,0,0,0,2.169-2.117.054.054,0,0,1,.053-.053h5.373a2.172,2.172,0,0,0,2.141-2.535A2.252,2.252,0,0,0,43,10.34Z" transform="translate(7.884 0.511)" fill="#646e70"/>
      <circle id="Elipse_3" data-name="Elipse 3" cx="1.085" cy="1.085" r="1.085" transform="translate(9.224 3.255)" fill="#d1d1d1"/>
      <circle id="Elipse_4" data-name="Elipse 4" cx="1.085" cy="1.085" r="1.085" transform="translate(24.416 19.532)" fill="#d1d1d1"/>
      <circle id="Elipse_5" data-name="Elipse 5" cx="1.085" cy="1.085" r="1.085" transform="translate(27.671 23.873)" fill="#d1d1d1"/>
      <circle id="Elipse_6" data-name="Elipse 6" cx="1.085" cy="1.085" r="1.085" transform="translate(48.288 37.979)" fill="#d1d1d1"/>
      <circle id="Elipse_7" data-name="Elipse 7" cx="1.085" cy="1.085" r="1.085" transform="translate(12.479 58.596)" fill="#d1d1d1"/>
      <circle id="Elipse_8" data-name="Elipse 8" cx="1.085" cy="1.085" r="1.085" transform="translate(7.054 51)" fill="#d1d1d1"/>
      <circle id="Elipse_9" data-name="Elipse 9" cx="1.085" cy="1.085" r="1.085" transform="translate(18.99)" fill="#d1d1d1"/>
      <circle id="Elipse_10" data-name="Elipse 10" cx="1.085" cy="1.085" r="1.085" transform="translate(55.884 10.851)" fill="#d1d1d1"/>
      <circle id="Elipse_11" data-name="Elipse 11" cx="1.085" cy="1.085" r="1.085" transform="translate(64.565 57.511)" fill="#d1d1d1"/>
      <path id="Caminho_172" data-name="Caminho 172" d="M43,10.34H40.565a.056.056,0,0,1-.022-.109A2.174,2.174,0,0,0,42,7.806,2.252,2.252,0,0,0,39.746,6H34.436a2.17,2.17,0,0,0-2.169,2.117.054.054,0,0,1-.053.053H29.127A2.252,2.252,0,0,0,26.87,9.976,2.174,2.174,0,0,0,28.329,12.4a.056.056,0,0,1-.022.109H24.786a2.252,2.252,0,0,0-2.257,1.806,2.172,2.172,0,0,0,2.141,2.535H35.521a2.17,2.17,0,0,0,2.169-2.117.054.054,0,0,1,.053-.053h5.373a2.172,2.172,0,0,0,2.141-2.535A2.252,2.252,0,0,0,43,10.34Z" transform="translate(-22.5 27.639)" fill="#777"/>
      <path id="Caminho_173" data-name="Caminho 173" d="M59.6,13.854H55.188a.1.1,0,0,1-.039-.2,3.933,3.933,0,0,0,2.641-4.39A4.075,4.075,0,0,0,53.706,6H44.1a3.926,3.926,0,0,0-3.925,3.831.1.1,0,0,1-.1.1H34.491a4.075,4.075,0,0,0-4.084,3.267,3.933,3.933,0,0,0,2.641,4.39.1.1,0,0,1-.039.2H26.637a4.075,4.075,0,0,0-4.084,3.267,3.93,3.93,0,0,0,3.874,4.587H46.062A3.926,3.926,0,0,0,49.987,21.8a.1.1,0,0,1,.1-.1h9.723a3.93,3.93,0,0,0,3.874-4.587A4.075,4.075,0,0,0,59.6,13.854Z" transform="translate(4.086 35.751)" fill="#646362"/>
    </g>
    <path id="Caminho_175" data-name="Caminho 175" d="M1.628-3.167A33.836,33.836,0,0,1,3.255,1.9,1.628,1.628,0,0,1,0,1.9,33.836,33.836,0,0,1,1.628-3.167Z" transform="translate(-869.064 1602.071)" fill="#fff"/>
    <path id="Caminho_174" data-name="Caminho 174" d="M3.9-4.9S7.6,2.118,7.6,4.215a3.8,3.8,0,1,1-7.6,0C0,2.118,3.9-4.9,3.9-4.9Z" transform="translate(-865.808 1610.604)" fill="#fff"/>
    <path id="Caminho_176" data-name="Caminho 176" d="M1.628-3.167A33.836,33.836,0,0,1,3.255,1.9,1.628,1.628,0,0,1,0,1.9,33.836,33.836,0,0,1,1.628-3.167Z" transform="translate(-856.042 1564.092)" fill="#fff"/>
    <path id="Caminho_177" data-name="Caminho 177" d="M3.9-4.9S7.6,2.118,7.6,4.215a3.8,3.8,0,1,1-7.6,0C0,2.118,3.9-4.9,3.9-4.9Z" transform="translate(-899.447 1594.328)" fill="#fff"/>
  </g>
</svg>
