<svg xmlns="http://www.w3.org/2000/svg" width="62.034" height="59.601" viewBox="0 0 62.034 59.601">
  <g id="vento" transform="translate(725.484 -1295.783)">
    <g id="milky-way" transform="translate(-725.484 1296.8)">
      <circle id="Elipse_79" data-name="Elipse 79" cx="26.874" cy="26.874" r="26.874" transform="translate(3.121 2.867)" fill="#b6d0d6"/>
      <path id="Caminho_79" data-name="Caminho 79" d="M0,25.26Z" transform="translate(3.196 2.435)" fill="#61537c"/>
      <circle id="Elipse_49" data-name="Elipse 49" cx="1.065" cy="1.065" r="1.065" transform="translate(56.454 4.261)" fill="#f29c1f"/>
      <circle id="Elipse_50" data-name="Elipse 50" cx="1.065" cy="1.065" r="1.065" transform="translate(59.65 30.89)" fill="#f29c1f"/>
      <circle id="Elipse_52" data-name="Elipse 52" cx="1.065" cy="1.065" r="1.065" transform="translate(39.411 43.672)" fill="#38454f"/>
      <circle id="Elipse_59" data-name="Elipse 59" cx="1.065" cy="1.065" r="1.065" transform="translate(51.128 55.389)" fill="#f29c1f"/>
      <circle id="Elipse_60" data-name="Elipse 60" cx="1.065" cy="1.065" r="1.065" transform="translate(59.65 52.193)" fill="#f3d55b"/>
      <circle id="Elipse_61" data-name="Elipse 61" cx="1.065" cy="1.065" r="1.065" transform="translate(58.585 56.454)" fill="#f29c1f"/>
      <circle id="Elipse_62" data-name="Elipse 62" cx="1.065" cy="1.065" r="1.065" transform="translate(14.912 56.454)" fill="#f3d55b"/>
      <circle id="Elipse_63" data-name="Elipse 63" cx="1.065" cy="1.065" r="1.065" transform="translate(10.652 52.193)" fill="#ff5364"/>
      <circle id="Elipse_64" data-name="Elipse 64" cx="1.065" cy="1.065" r="1.065" transform="translate(1.065 42.607)" fill="#f3d55b"/>
      <circle id="Elipse_65" data-name="Elipse 65" cx="1.065" cy="1.065" r="1.065" transform="translate(1.065 26.629)" fill="#f3d55b"/>
      <circle id="Elipse_66" data-name="Elipse 66" cx="1.065" cy="1.065" r="1.065" transform="translate(0 35.151)" fill="#38454f"/>
      <circle id="Elipse_67" data-name="Elipse 67" cx="1.065" cy="1.065" r="1.065" transform="translate(0 2.13)" fill="#f29c1f"/>
      <circle id="Elipse_68" data-name="Elipse 68" cx="1.065" cy="1.065" r="1.065" transform="translate(14.912 4.261)" fill="#f3d55b"/>
      <circle id="Elipse_71" data-name="Elipse 71" cx="1.065" cy="1.065" r="1.065" transform="translate(9.587 39.411)" fill="#f3d55b"/>
      <circle id="Elipse_73" data-name="Elipse 73" cx="1.065" cy="1.065" r="1.065" transform="translate(52.193 42.607)" fill="#f3d55b"/>
      <circle id="Elipse_74" data-name="Elipse 74" cx="1.065" cy="1.065" r="1.065" transform="translate(48.998 0)" fill="#f29c1f"/>
      <circle id="Elipse_75" data-name="Elipse 75" cx="1.065" cy="1.065" r="1.065" transform="translate(36.216 4.261)" fill="#f3d55b"/>
      <circle id="Elipse_76" data-name="Elipse 76" cx="2.13" cy="2.13" r="2.13" transform="translate(57.519 11.717)" fill="#fff"/>
      <circle id="Elipse_77" data-name="Elipse 77" cx="2.13" cy="2.13" r="2.13" transform="translate(2.13 14.912)" fill="#fff"/>
      <circle id="Elipse_78" data-name="Elipse 78" cx="2.13" cy="2.13" r="2.13" transform="translate(2.13 50.063)" fill="#fff"/>
      <path id="Caminho_77" data-name="Caminho 77" d="M28.313,25.193a9.581,9.581,0,0,0-9.587,9.587c0,5.3,5.352,9.587,10.652,9.587,9.045.3,16.251-4.211,18.026-13.086A19.281,19.281,0,0,0,32.28,8.594,22.682,22.682,0,0,0,5.591,26.388a26.685,26.685,0,0,0,20.933,31.4A31.407,31.407,0,0,0,60.7,41.17" transform="translate(0.33 -1.759)" fill="none" stroke="#955ba5" stroke-linecap="round" stroke-miterlimit="10" stroke-width="2"/>
      <path id="Caminho_78" data-name="Caminho 78" d="M29.695,35.17c6.457.355,10.724-4.1,10.724-9.4a9.581,9.581,0,0,0-9.587-9.587c-9.045-.3-17.317,4.211-19.091,13.086A19.281,19.281,0,0,0,26.865,51.959,22.681,22.681,0,0,0,53.554,34.166a26.684,26.684,0,0,0-20.933-31.4A31.388,31.388,0,0,0,2,13.866" transform="translate(0.13 -2.15)" fill="none" stroke="#8697cb" stroke-linecap="round" stroke-miterlimit="10" stroke-width="2"/>
      <path id="Caminho_60" data-name="Caminho 60" d="M10.749,0A10.749,10.749,0,1,1,0,10.749,10.749,10.749,0,0,1,10.749,0Z" transform="translate(17.453 15.408)" fill="#dcf4f6"/>
    </g>
  </g>
</svg>
