<svg xmlns="http://www.w3.org/2000/svg" width="71.089" height="59.202" viewBox="0 0 71.089 59.202">
  <g id="frigido" transform="translate(903.141 -1428.982)">
    <g id="uranus_1_" data-name="uranus (1)" transform="translate(-903.141 1428.982)">
      <path id="Caminho_124" data-name="Caminho 124" d="M48.539,312.278q-.1-.2-.2-.412l-.058-.124q-.094-.2-.184-.4l-.059-.136c-.058-.134-.116-.267-.172-.4-.02-.047-.039-.094-.058-.141-.055-.135-.11-.269-.163-.405-.017-.044-.034-.089-.051-.133-.054-.14-.107-.28-.159-.422l-.027-.076q-.227-.632-.422-1.28c-1.391,1.352-2.017,2.489-1.692,3.289s1.569,1.174,3.509,1.169q-.109-.208-.214-.418Z" transform="translate(-35.866 -271.39)" fill="none"/>
      <path id="Caminho_125" data-name="Caminho 125" d="M431.493,159.24c-.326-.8-1.569-1.175-3.51-1.17a25.344,25.344,0,0,1,1.818,4.458C431.191,161.175,431.818,160.038,431.493,159.24Z" transform="translate(-369.833 -140.277)" fill="none"/>
      <path id="Caminho_126" data-name="Caminho 126" d="M220.642,63.689a25.47,25.47,0,0,0-20.954,10.966q1.406-.615,2.86-1.208c8.936-3.641,17.433-5.89,23.885-6.567a25.526,25.526,0,0,0-13.488-9.085,25.484,25.484,0,0,1,10.778,6.086A25.725,25.725,0,0,0,220.642,63.689Z" transform="translate(-170.646 -52.787)" fill="#708aff"/>
      <path id="Caminho_127" data-name="Caminho 127" d="M88.609,367.836c-.074-.1-.146-.2-.218-.3Q88.5,367.687,88.609,367.836Z" transform="translate(-73.54 -323.035)" fill="#708aff"/>
      <path id="Caminho_128" data-name="Caminho 128" d="M285.187,53.664c.153.027.306.055.458.085C285.493,53.719,285.34,53.691,285.187,53.664Z" transform="translate(-245.244 -49.184)" fill="#708aff"/>
      <path id="Caminho_129" data-name="Caminho 129" d="M289.9,54.544q.245.049.488.1C290.23,54.611,290.067,54.577,289.9,54.544Z" transform="translate(-249.359 -49.951)" fill="#708aff"/>
      <path id="Caminho_130" data-name="Caminho 130" d="M299.141,56.613q.277.069.551.144Q299.418,56.682,299.141,56.613Z" transform="translate(-257.419 -51.757)" fill="#708aff"/>
      <path id="Caminho_131" data-name="Caminho 131" d="M135.245,162.534l.006-.006a25.337,25.337,0,0,0-1.818-4.458c-4.925.012-14.345,2.475-24.691,6.69-2.628,1.071-5.134,2.181-7.469,3.3a25.512,25.512,0,0,0,6.473,27.132,25.486,25.486,0,0,1-17.358-10.063c.053.071.106.143.16.213a25.5,25.5,0,0,0,45.781-15.46,25.759,25.759,0,0,0-.183-3.055l0,0A25.329,25.329,0,0,0,135.245,162.534Z" transform="translate(-75.283 -140.277)" fill="#708aff"/>
      <path id="Caminho_132" data-name="Caminho 132" d="M69.75,335.978q.1.207.2.412Q69.848,336.185,69.75,335.978Z" transform="translate(-57.276 -295.501)" fill="#708aff"/>
      <path id="Caminho_133" data-name="Caminho 133" d="M66.033,327.62c.056.135.114.268.172.4C66.147,327.888,66.089,327.755,66.033,327.62Z" transform="translate(-54.033 -288.209)" fill="#708aff"/>
      <path id="Caminho_134" data-name="Caminho 134" d="M64.3,323.333c.053.136.108.271.163.405C64.409,323.6,64.354,323.469,64.3,323.333Z" transform="translate(-52.522 -284.469)" fill="#708aff"/>
      <path id="Caminho_135" data-name="Caminho 135" d="M62.66,318.981c.051.141.1.282.159.422C62.765,319.263,62.711,319.122,62.66,318.981Z" transform="translate(-51.09 -280.671)" fill="#708aff"/>
      <path id="Caminho_136" data-name="Caminho 136" d="M86.767,365.252l-.029-.042Z" transform="translate(-72.098 -321.006)" fill="#708aff"/>
      <path id="Caminho_137" data-name="Caminho 137" d="M67.851,331.837q.09.2.184.4Q67.942,332.04,67.851,331.837Z" transform="translate(-55.619 -291.888)" fill="#708aff"/>
      <path id="Caminho_138" data-name="Caminho 138" d="M59.142,308.342h0q.195.647.422,1.28Q59.336,308.99,59.142,308.342Z" transform="translate(-48.021 -271.389)" fill="#708aff"/>
      <path id="Caminho_139" data-name="Caminho 139" d="M294.554,55.528q.26.058.519.122Q294.815,55.587,294.554,55.528Z" transform="translate(-253.417 -50.81)" fill="#708aff"/>
      <path id="Caminho_140" data-name="Caminho 140" d="M51.262,265.8c-.008-.089-.015-.178-.022-.268C51.247,265.625,51.255,265.715,51.262,265.8Z" transform="translate(-41.126 -234.041)" fill="#708aff"/>
      <path id="Caminho_141" data-name="Caminho 141" d="M265.767,51.254c.114.009.227.019.34.029C265.994,51.273,265.881,51.262,265.767,51.254Z" transform="translate(-228.3 -47.081)" fill="#708aff"/>
      <path id="Caminho_142" data-name="Caminho 142" d="M50.762,255.879c0-.07-.006-.141-.007-.211C50.757,255.739,50.76,255.809,50.762,255.879Z" transform="translate(-40.703 -225.431)" fill="#708aff"/>
      <path id="Caminho_143" data-name="Caminho 143" d="M260.784,50.943c.1,0,.2.012.3.018C260.985,50.955,260.885,50.948,260.784,50.943Z" transform="translate(-223.952 -46.81)" fill="#708aff"/>
      <path id="Caminho_144" data-name="Caminho 144" d="M255.759,50.755l.241.009C255.92,50.761,255.84,50.757,255.759,50.755Z" transform="translate(-219.568 -46.645)" fill="#708aff"/>
      <path id="Caminho_145" data-name="Caminho 145" d="M71.934,340.446h0q-.109-.208-.214-.418Q71.825,340.238,71.934,340.446Z" transform="translate(-58.995 -299.035)" fill="#708aff"/>
      <path id="Caminho_146" data-name="Caminho 146" d="M280.413,52.892c.144.021.287.045.43.069C280.7,52.937,280.557,52.913,280.413,52.892Z" transform="translate(-241.079 -48.51)" fill="#708aff"/>
      <path id="Caminho_147" data-name="Caminho 147" d="M51.689,270.694c-.01-.092-.02-.184-.029-.277C51.669,270.51,51.679,270.6,51.689,270.694Z" transform="translate(-41.493 -238.3)" fill="#708aff"/>
      <path id="Caminho_148" data-name="Caminho 148" d="M275.583,52.231c.134.017.268.035.4.054C275.851,52.267,275.717,52.248,275.583,52.231Z" transform="translate(-236.864 -47.933)" fill="#708aff"/>
      <path id="Caminho_149" data-name="Caminho 149" d="M270.7,51.684c.124.012.248.027.372.041C270.948,51.711,270.825,51.7,270.7,51.684Z" transform="translate(-232.604 -47.456)" fill="#708aff"/>
      <path id="Caminho_150" data-name="Caminho 150" d="M50.953,260.87c0-.084-.011-.167-.015-.251C50.942,260.7,50.948,260.786,50.953,260.87Z" transform="translate(-40.863 -229.751)" fill="#708aff"/>
      <path id="Caminho_151" data-name="Caminho 151" d="M80.485,263.529A25.512,25.512,0,0,1,74.012,236.4c-6.857,3.279-12.235,6.612-14.869,9.173q.195.647.422,1.28l.027.076c.051.141.1.282.159.422l.051.133c.053.136.108.271.163.405.019.047.038.094.058.141q.084.2.172.4l.059.136q.09.2.184.4l.058.124q.1.207.2.412l.052.1q.1.21.214.418h.015a26.232,26.232,0,0,0,1.686,2.793l.029.042c.06.086.121.17.182.255.072.1.144.2.218.3l.036.049A25.487,25.487,0,0,0,80.485,263.529Z" transform="translate(-48.022 -208.617)" fill="#3d6edd"/>
      <path id="Caminho_152" data-name="Caminho 152" d="M69.691,68.455A25.431,25.431,0,0,1,93.725,57.681,25.484,25.484,0,0,0,82.947,51.6l-.025-.007q-.274-.075-.551-.144l-.066-.016q-.259-.064-.519-.122l-.1-.023q-.243-.054-.488-.1l-.143-.027c-.152-.029-.305-.058-.458-.085l-.178-.03c-.143-.024-.286-.047-.43-.069l-.214-.03c-.133-.019-.267-.038-.4-.054l-.25-.029c-.124-.014-.248-.029-.372-.041-.1-.01-.192-.017-.289-.026-.113-.01-.227-.021-.34-.029s-.222-.014-.333-.021-.2-.014-.3-.018c-.133-.007-.266-.011-.4-.015L76.84,50.7q-.322-.008-.646-.008a25.5,25.5,0,0,0-25.5,25.5q0,.318.008.635c0,.071.005.141.007.211,0,.14.009.281.016.42,0,.084.01.167.015.251.007.126.015.251.024.376.007.089.015.179.022.268.01.118.02.237.031.355.009.093.019.185.029.277s.018.174.029.261A88.362,88.362,0,0,1,69.691,68.455Z" transform="translate(-40.649 -46.588)" fill="#3d6edd"/>
      <path id="Caminho_153" data-name="Caminho 153" d="M63.718,130.136c-.987-2.422-5.3-3.225-11.512-2.573-6.452.677-14.948,2.926-23.885,6.567q-1.454.592-2.86,1.208A88.361,88.361,0,0,0,6.645,146.126C1.75,150-.775,153.587.212,156.009s5.3,3.222,11.509,2.571l-.036-.048c-.054-.07-.106-.142-.16-.213l-.036-.049q-.11-.149-.218-.3c-.061-.085-.122-.169-.182-.255l-.029-.042a26.219,26.219,0,0,1-1.686-2.793H9.359c-1.94,0-3.184-.37-3.509-1.169s.3-1.936,1.692-3.289h0c2.634-2.561,8.012-5.895,14.869-9.173,2.335-1.116,4.84-2.226,7.469-3.3,10.346-4.215,19.766-6.678,24.691-6.69,1.941,0,3.184.371,3.51,1.17s-.3,1.936-1.692,3.288l-.006.006a25.328,25.328,0,0,1,.9,4.293l0,0C62.176,136.146,64.7,132.557,63.718,130.136Z" transform="translate(3.58 -113.47)" fill="#e6efff"/>
      <path id="Caminho_155" data-name="Caminho 155" d="M63.717,2.791C62.731.368,58.415-.435,52.206.217,45.754.895,37.257,3.144,28.321,6.784q-1.454.592-2.86,1.208A88.361,88.361,0,0,0,6.645,18.78c-4.9,3.872-7.42,7.462-6.434,9.883s5.3,3.222,11.509,2.571l-.036-.048c-.054-.07-.106-.142-.16-.213l-.036-.049q-.11-.149-.218-.3c-.061-.085-.122-.169-.182-.255l-.029-.042a26.219,26.219,0,0,1-1.686-2.793H9.358c-1.94,0-3.184-.37-3.509-1.169s.3-1.936,1.692-3.289h0c2.634-2.561,8.012-5.895,14.869-9.173,2.335-1.116,4.84-2.226,7.469-3.3C40.224,6.393,49.645,3.93,54.57,3.917c1.941,0,3.184.371,3.51,1.17s-.3,1.936-1.692,3.288l-.006.006a25.328,25.328,0,0,1,.9,4.293l0,0C62.176,8.8,64.7,5.212,63.717,2.791Z" transform="translate(15.726 0) rotate(30)" fill="#c4d6f3"/>
    </g>
    <circle id="Elipse_87" data-name="Elipse 87" cx="1.021" cy="1.021" r="1.021" transform="translate(-893.811 1433.083)" fill="#b6d0d6"/>
    <circle id="Elipse_88" data-name="Elipse 88" cx="1.021" cy="1.021" r="1.021" transform="translate(-867.273 1455.538)" fill="#b6d0d6"/>
    <circle id="Elipse_89" data-name="Elipse 89" cx="1.021" cy="1.021" r="1.021" transform="translate(-890.749 1485.137)" fill="#b6d0d6"/>
    <circle id="Elipse_90" data-name="Elipse 90" cx="1.021" cy="1.021" r="1.021" transform="translate(-895.852 1477.993)" fill="#b6d0d6"/>
    <circle id="Elipse_91" data-name="Elipse 91" cx="1.021" cy="1.021" r="1.021" transform="translate(-884.625 1430.021)" fill="#b6d0d6"/>
    <circle id="Elipse_92" data-name="Elipse 92" cx="1.021" cy="1.021" r="1.021" transform="translate(-841.757 1484.117)" fill="#b6d0d6"/>
    <path id="Caminho_154" data-name="Caminho 154" d="M41.784,10.083H39.492a.053.053,0,0,1-.02-.1A2.045,2.045,0,0,0,40.845,7.7,2.118,2.118,0,0,0,38.722,6H33.727a2.041,2.041,0,0,0-2.04,1.991.051.051,0,0,1-.05.05h-2.9a2.118,2.118,0,0,0-2.123,1.7,2.045,2.045,0,0,0,1.373,2.282.053.053,0,0,1-.02.1H24.651a2.118,2.118,0,0,0-2.123,1.7,2.043,2.043,0,0,0,2.014,2.384H34.748a2.041,2.041,0,0,0,2.04-1.991.051.051,0,0,1,.05-.05h5.054a2.043,2.043,0,0,0,2.014-2.384A2.118,2.118,0,0,0,41.784,10.083Z" transform="translate(-891.304 1457.703)" fill="#e1f1fe"/>
  </g>
</svg>
