<svg xmlns="http://www.w3.org/2000/svg" width="61.764" height="62.903" viewBox="0 0 61.764 62.903">
  <g id="quente" transform="translate(745 -1376.56)">
    <circle id="Elipse_82" data-name="Elipse 82" cx="1.211" cy="1.211" r="1.211" transform="translate(-738.945 1376.56)" fill="#fcd435"/>
    <circle id="Elipse_85" data-name="Elipse 85" cx="1.211" cy="1.211" r="1.211" transform="translate(-730.467 1377.771)" fill="#fcd435"/>
    <circle id="Elipse_86" data-name="Elipse 86" cx="1.211" cy="1.211" r="1.211" transform="translate(-685.658 1393.514)" fill="#fcd435"/>
    <g id="mars_1_" data-name="mars (1)" transform="translate(-743.183 1382.543)">
      <path id="Caminho_110" data-name="Caminho 110" d="M17.376,54.671h-.02c.616.261,1.245.5,1.883.712l.169.056c.146.048.291.1.437.143q.353.112.711.215l.012,0h0a28.34,28.34,0,0,0,4.453.9q-1.013-.96-1.93-2.016l-.519.236c-.679.309-1.346.612-1.994.873l-.271-.079c-.32-.1-.637-.2-.952-.3-.2-.069-.408-.134-.609-.207-.221-.079-.437-.168-.654-.253-.239-.094-.478-.186-.714-.285,1.1.027,2.776-.729,4.409-1.472l.078-.036c.394.522.8,1.033,1.227,1.526,1.857-.843,3.735-1.646,5.329-1.565a11.9,11.9,0,0,0,6.21-1.077.945.945,0,0,0,.342-1.289A.955.955,0,0,0,33.68,50.4a10.437,10.437,0,0,1-5.181.825c-2.173-.084-4.439.934-6.641,1.937-3.6-4.763-2.619-10.2-2.619-16.631,0-.332,1.093-.886,3.3-.721.008,0,.013.007.021.009l5.193,1.148a.633.633,0,0,1,.178,1.135.949.949,0,0,0,.526,1.738,68.79,68.79,0,0,0,16.357-1.829.948.948,0,0,0,.022-1.834l-1.932-.533,1.857-1.392c.013-.009.018-.024.03-.034,1.027-.256,2.012-.534,2.934-.837a.949.949,0,0,0-.591-1.8A43.5,43.5,0,0,1,42.5,32.806,70.063,70.063,0,0,1,28.46,34.152C24.221,34.152,46.9,7.667,48.026,7.8A28.441,28.441,0,0,0,36,1.011L35.969,1q-.306-.084-.614-.16L35.28.825Q34.992.754,34.7.688L34.584.663Q34.313.6,34.039.548l-.158-.03c-.17-.033-.341-.065-.513-.095l-.2-.033c-.16-.027-.32-.053-.48-.077L32.45.28C32.3.259,32.152.238,32,.219L31.723.187c-.138-.016-.277-.032-.416-.046C31.2.131,31.093.122,30.986.113,30.859.1,30.732.09,30.605.08s-.247-.016-.37-.023S30.009.042,29.9.036c-.148-.007-.3-.012-.444-.017-.09,0-.181-.008-.271-.01Q28.821,0,28.46,0a28.47,28.47,0,0,0-26.9,19.138q.082-.241.17-.48c.021.019.047.027.067.047,1.517,1.621,4.279,3.122,7.986,4.339a.949.949,0,0,1-.591,1.8,23.422,23.422,0,0,1-8.1-4.191c.144-.507.3-1.009.467-1.5A28.415,28.415,0,0,0,0,28.46q0,.355.009.708c0,.079.006.158.008.237.005.156.01.312.018.467,0,.094.011.188.017.282.008.139.016.279.026.418.007.1.016.2.025.3.011.132.022.264.035.395.01.1.021.206.033.309.014.127.028.254.044.38.013.105.027.21.041.315q.025.184.051.368.024.16.049.32.028.179.059.358c.019.108.037.216.057.323s.044.232.067.348.043.219.066.328.048.224.073.336.049.222.075.332.052.215.079.322.056.228.085.341.053.2.08.3c.033.121.065.241.1.361.022.077.046.153.068.229q.233.789.509,1.558l.03.085c.057.158.117.314.177.47.019.05.037.1.057.149.059.151.12.3.182.452.022.053.043.106.065.158.063.15.127.3.192.448l.067.152q.1.227.206.451l.064.138q.109.231.222.46l.058.116q.119.239.243.475l.045.086q.132.25.269.5l.024.043A28.563,28.563,0,0,0,17.376,54.671ZM20.2,8.813a.993.993,0,0,1,1.347,0,.957.957,0,0,1,.275.674.922.922,0,0,1-.275.664.968.968,0,0,1-.673.284A.953.953,0,0,1,20.2,8.813Zm-7.765,3.76A2.247,2.247,0,0,1,15.363,11.5a2.247,2.247,0,0,1,.27,3.109A2.247,2.247,0,0,1,12.7,15.682,2.247,2.247,0,0,1,12.432,12.573ZM6.6,32.589a1.826,1.826,0,0,1,1.082-2.295,1.826,1.826,0,0,1,1.933,1.643A1.826,1.826,0,0,1,8.53,34.232,1.827,1.827,0,0,1,6.6,32.589Z" fill="#db3f3d"/>
      <path id="Caminho_80" data-name="Caminho 80" d="M23.092,342.8q-.113-.229-.222-.46Q22.979,342.574,23.092,342.8Z" transform="translate(-20.158 -301.747)" fill="#ff4f19"/>
      <path id="Caminho_81" data-name="Caminho 81" d="M20.8,337.827q-.1-.225-.206-.451Q20.693,337.6,20.8,337.827Z" transform="translate(-18.15 -297.369)" fill="#ff4f19"/>
      <path id="Caminho_82" data-name="Caminho 82" d="M18.6,332.765c-.065-.149-.13-.3-.192-.448C18.473,332.467,18.537,332.616,18.6,332.765Z" transform="translate(-16.227 -292.91)" fill="#ff4f19"/>
      <path id="Caminho_83" data-name="Caminho 83" d="M16.513,327.623c-.062-.15-.123-.3-.182-.452C16.39,327.322,16.451,327.473,16.513,327.623Z" transform="translate(-14.394 -288.374)" fill="#ff4f19"/>
      <path id="Caminho_84" data-name="Caminho 84" d="M62.559,8.525a28.44,28.44,0,0,1,12.029,6.793A28.414,28.414,0,0,0,42.836,40.655h0v.016a72.535,72.535,0,0,0,12.187.994,70.065,70.065,0,0,0,14.036-1.345A43.53,43.53,0,0,0,73.7,39.1a.949.949,0,0,1,.591,1.8c-.922.3-1.908.581-2.934.837-.012.01-.018.024-.03.034L69.47,43.162l1.932.533a.948.948,0,0,1-.022,1.834,68.792,68.792,0,0,1-16.357,1.829A.949.949,0,0,1,54.5,45.62a.633.633,0,0,0-.178-1.135l-5.193-1.148c-.008,0-.013-.007-.021-.009-2.21-.166-4.364-.413-6.4-.755-.011.329-.019.658-.019.99a28.309,28.309,0,0,0,5.731,17.116c2.2-1,4.469-2.021,6.641-1.937a10.437,10.437,0,0,0,5.181-.825.955.955,0,0,1,1.291.354.945.945,0,0,1-.342,1.289,11.9,11.9,0,0,1-6.21,1.077c-1.594-.081-3.472.722-5.329,1.565h0q.916,1.054,1.93,2.016a28.344,28.344,0,0,1-4.453-.9h0l-.012,0q-.357-.1-.711-.215c-.147-.046-.292-.095-.437-.143L45.8,62.9c-.638-.216-1.267-.451-1.883-.712h.02a28.566,28.566,0,0,1-13.8-12.4A28.462,28.462,0,1,0,62.559,8.525Zm-3.743,26.5c-.031,0-.081,0-.121,0a6.272,6.272,0,0,0-3.154.918,7.887,7.887,0,0,1-3.9,1.1,9.233,9.233,0,0,1-1.52-.133.949.949,0,1,1,.311-1.871,5.869,5.869,0,0,0,4.245-.786,7.726,7.726,0,0,1,4.153-1.125.949.949,0,0,1-.016,1.9ZM66.2,33.714c-.851,1.084-2.926,1.277-3.541,1.31H62.61a.949.949,0,0,1-.052-1.9,4.25,4.25,0,0,0,2.153-.588A.949.949,0,0,1,66.2,33.714ZM50.952,47.073a.968.968,0,0,1-.674.284.951.951,0,1,1,.673-1.622.957.957,0,0,1,.275.674A.921.921,0,0,1,50.952,47.073Zm12.332,4.743a.968.968,0,0,1-.674.284.951.951,0,1,1,.673-1.622.957.957,0,0,1,.275.674A.921.921,0,0,1,63.285,51.817Zm7.589-20.882a.968.968,0,0,1-.674.284.951.951,0,1,1,.673-1.622.957.957,0,0,1,.275.674A.921.921,0,0,1,70.874,30.934Zm3.795,3.806a.968.968,0,0,1-.674.284.951.951,0,1,1,.673-1.622.957.957,0,0,1,.275.674A.921.921,0,0,1,74.669,34.741ZM70.411,22.993a.923.923,0,0,1-.212.024.949.949,0,0,1-.21-1.873,41.763,41.763,0,0,0,7.636-2.456q.59.77,1.128,1.579A42.886,42.886,0,0,1,70.411,22.993Z" transform="translate(-26.562 -7.514)" fill="#ff4f19"/>
      <path id="Caminho_85" data-name="Caminho 85" d="M25.476,347.678q-.124-.236-.243-.475Q25.353,347.442,25.476,347.678Z" transform="translate(-22.241 -306.031)" fill="#ff4f19"/>
      <path id="Caminho_86" data-name="Caminho 86" d="M27.933,352.427q-.137-.247-.269-.5Q27.8,352.179,27.933,352.427Z" transform="translate(-24.384 -310.197)" fill="#ff4f19"/>
      <path id="Caminho_87" data-name="Caminho 87" d="M2.633,275.572q-.025-.16-.049-.32Q2.608,275.412,2.633,275.572Z" transform="translate(-2.278 -242.612)" fill="#ff4f19"/>
      <path id="Caminho_88" data-name="Caminho 88" d="M275.665,2.641c.161.024.32.05.48.077C275.985,2.691,275.826,2.665,275.665,2.641Z" transform="translate(-242.976 -2.328)" fill="#ff4f19"/>
      <path id="Caminho_89" data-name="Caminho 89" d="M281.394,3.568c.171.03.342.062.513.095C281.736,3.63,281.565,3.6,281.394,3.568Z" transform="translate(-248.026 -3.145)" fill="#ff4f19"/>
      <path id="Caminho_90" data-name="Caminho 90" d="M.312,252.193C.306,252.1.3,252.005.3,251.911.3,252.005.306,252.1.312,252.193Z" transform="translate(-0.26 -222.039)" fill="#ff4f19"/>
      <path id="Caminho_91" data-name="Caminho 91" d="M.084,246.21c0-.079-.006-.158-.008-.237C.078,246.052.082,246.131.084,246.21Z" transform="translate(-0.067 -216.805)" fill="#ff4f19"/>
      <path id="Caminho_92" data-name="Caminho 92" d="M269.87,1.849c.15.019.3.04.448.061C270.169,1.889,270.02,1.868,269.87,1.849Z" transform="translate(-237.868 -1.63)" fill="#ff4f19"/>
      <path id="Caminho_93" data-name="Caminho 93" d="M246.08.077c.091,0,.181.007.271.01C246.261.084,246.171.079,246.08.077Z" transform="translate(-216.899 -0.068)" fill="#ff4f19"/>
      <path id="Caminho_94" data-name="Caminho 94" d="M252.11.3c.113.006.226.014.339.021C252.336.317,252.223.309,252.11.3Z" transform="translate(-222.214 -0.267)" fill="#ff4f19"/>
      <path id="Caminho_95" data-name="Caminho 95" d="M287.051,4.623q.274.054.545.115C287.415,4.7,287.233,4.659,287.051,4.623Z" transform="translate(-253.012 -4.075)" fill="#ff4f19"/>
      <path id="Caminho_96" data-name="Caminho 96" d="M292.635,5.8q.29.065.579.136Q292.925,5.87,292.635,5.8Z" transform="translate(-257.934 -5.117)" fill="#ff4f19"/>
      <path id="Caminho_97" data-name="Caminho 97" d="M298.142,7.107q.309.077.615.16Q298.451,7.184,298.142,7.107Z" transform="translate(-262.788 -6.264)" fill="#ff4f19"/>
      <path id="Caminho_98" data-name="Caminho 98" d="M1.845,269.8c-.014-.105-.028-.21-.041-.315C1.817,269.592,1.831,269.7,1.845,269.8Z" transform="translate(-1.59 -237.531)" fill="#ff4f19"/>
      <path id="Caminho_99" data-name="Caminho 99" d="M1.195,263.979c-.011-.1-.023-.206-.033-.309C1.172,263.773,1.183,263.876,1.195,263.979Z" transform="translate(-1.024 -232.403)" fill="#ff4f19"/>
      <path id="Caminho_100" data-name="Caminho 100" d="M.683,258.111c-.008-.1-.017-.2-.025-.3C.665,257.911.674,258.011.683,258.111Z" transform="translate(-0.58 -227.239)" fill="#ff4f19"/>
      <path id="Caminho_101" data-name="Caminho 101" d="M258.089.676c.127.009.254.021.381.033C258.343.7,258.216.685,258.089.676Z" transform="translate(-227.484 -0.596)" fill="#ff4f19"/>
      <path id="Caminho_102" data-name="Caminho 102" d="M7.1,298.089c-.03-.113-.057-.227-.085-.341C7.039,297.862,7.067,297.976,7.1,298.089Z" transform="translate(-6.18 -262.44)" fill="#ff4f19"/>
      <path id="Caminho_103" data-name="Caminho 103" d="M14.539,322.419c-.06-.156-.12-.313-.177-.47C14.419,322.107,14.479,322.263,14.539,322.419Z" transform="translate(-12.659 -283.772)" fill="#ff4f19"/>
      <path id="Caminho_104" data-name="Caminho 104" d="M8.5,303.477c-.034-.12-.066-.241-.1-.361C8.437,303.237,8.469,303.357,8.5,303.477Z" transform="translate(-7.407 -267.172)" fill="#ff4f19"/>
      <path id="Caminho_105" data-name="Caminho 105" d="M5.792,292.565c-.026-.11-.05-.221-.075-.332C5.742,292.344,5.766,292.455,5.792,292.565Z" transform="translate(-5.039 -257.579)" fill="#ff4f19"/>
      <path id="Caminho_106" data-name="Caminho 106" d="M10.324,309.651q-.277-.769-.509-1.558Q10.048,308.881,10.324,309.651Z" transform="translate(-8.651 -271.559)" fill="#ff4f19"/>
      <path id="Caminho_107" data-name="Caminho 107" d="M4.609,286.96c-.023-.109-.044-.218-.066-.328C4.565,286.741,4.586,286.851,4.609,286.96Z" transform="translate(-4.004 -252.643)" fill="#ff4f19"/>
      <path id="Caminho_108" data-name="Caminho 108" d="M3.555,281.3q-.03-.161-.057-.324Q3.526,281.134,3.555,281.3Z" transform="translate(-3.083 -247.654)" fill="#ff4f19"/>
      <path id="Caminho_109" data-name="Caminho 109" d="M264.01,1.192c.139.014.277.03.416.046C264.287,1.222,264.149,1.206,264.01,1.192Z" transform="translate(-232.703 -1.051)" fill="#ff4f19"/>
      <path id="Caminho_111" data-name="Caminho 111" d="M201.5,215.976a7.726,7.726,0,0,0-4.153,1.125,5.869,5.869,0,0,1-4.245.786.949.949,0,0,0-.311,1.871,9.235,9.235,0,0,0,1.52.133,7.887,7.887,0,0,0,3.9-1.1,6.272,6.272,0,0,1,3.154-.918c.041,0,.091,0,.121,0a.949.949,0,0,0,.016-1.9Z" transform="translate(-169.232 -190.362)" fill="#db3f3d"/>
      <path id="Caminho_112" data-name="Caminho 112" d="M300.384,208.2a.948.948,0,0,0-1.332.159,4.251,4.251,0,0,1-2.153.588.949.949,0,0,0,.052,1.9H297c.615-.033,2.689-.226,3.541-1.31A.949.949,0,0,0,300.384,208.2Z" transform="translate(-260.903 -183.331)" fill="#db3f3d"/>
      <ellipse id="Elipse_80" data-name="Elipse 80" cx="2.478" cy="1.897" rx="2.478" ry="1.897" transform="translate(16.963 12.52) rotate(122.471)" fill="#a03939"/>
      <ellipse id="Elipse_81" data-name="Elipse 81" cx="1.542" cy="2.014" rx="1.542" ry="2.014" transform="translate(6.172 30.619) rotate(-12.199)" fill="#a03939"/>
      <path id="Caminho_113" data-name="Caminho 113" d="M168.949,73.985a.968.968,0,0,0,.674-.284.922.922,0,0,0,.275-.664.957.957,0,0,0-.275-.674.953.953,0,1,0-.674,1.622Z" transform="translate(-148.078 -63.55)" fill="#a03939"/>
      <path id="Caminho_114" data-name="Caminho 114" d="M360.275,184.264a.949.949,0,0,0,.674,1.622.968.968,0,0,0,.674-.284.921.921,0,0,0,.275-.664.957.957,0,0,0-.275-.674A.993.993,0,0,0,360.275,184.264Z" transform="translate(-317.31 -162.181)" fill="#db3f3d"/>
      <path id="Caminho_115" data-name="Caminho 115" d="M392.275,216.363a.949.949,0,0,0,.674,1.622.968.968,0,0,0,.674-.284.921.921,0,0,0,.275-.664.957.957,0,0,0-.275-.674A.993.993,0,0,0,392.275,216.363Z" transform="translate(-345.516 -190.474)" fill="#db3f3d"/>
      <path id="Caminho_116" data-name="Caminho 116" d="M192.275,320.363a.949.949,0,0,0,.674,1.622.968.968,0,0,0,.674-.284.921.921,0,0,0,.275-.664.957.957,0,0,0-.275-.674A.993.993,0,0,0,192.275,320.363Z" transform="translate(-169.232 -282.141)" fill="#db3f3d"/>
      <path id="Caminho_117" data-name="Caminho 117" d="M296.275,360.363a.949.949,0,0,0,.674,1.622.968.968,0,0,0,.674-.284.921.921,0,0,0,.275-.664.957.957,0,0,0-.275-.674A.993.993,0,0,0,296.275,360.363Z" transform="translate(-260.9 -317.398)" fill="#db3f3d"/>
      <path id="Caminho_118" data-name="Caminho 118" d="M120.015,278.85a.949.949,0,0,0,.755,1.109c.376.072.765.134,1.151.2.022-.639.057-1.274.121-1.9,0,0,0-.008,0-.012h0c-.3-.053-.622-.093-.918-.149A.948.948,0,0,0,120.015,278.85Z" transform="translate(-105.768 -245.103)" fill="#a03939"/>
      <path id="Caminho_119" data-name="Caminho 119" d="M17.312,163.531a.949.949,0,0,0,.591-1.8c-3.707-1.217-6.468-2.718-7.986-4.339-.019-.021-.046-.029-.067-.047q-.088.239-.17.48l0,.014c-.169.5-.322,1-.467,1.5A23.419,23.419,0,0,0,17.312,163.531Z" transform="translate(-8.117 -138.683)" fill="#a03939"/>
      <path id="Caminho_120" data-name="Caminho 120" d="M151.028,448.317l-.078.036c-1.632.743-3.309,1.5-4.409,1.472.236.1.475.192.714.285.218.085.434.174.654.253.2.073.406.139.609.207.316.105.632.208.952.3l.271.079c.648-.261,1.315-.564,1.994-.873l.519-.236h0C151.827,449.35,151.422,448.839,151.028,448.317Z" transform="translate(-129.164 -395.155)" fill="#a03939"/>
      <path id="Caminho_121" data-name="Caminho 121" d="M368.366,94.224a41.751,41.751,0,0,1-7.636,2.456.949.949,0,0,0,.21,1.873.929.929,0,0,0,.212-.024,42.886,42.886,0,0,0,8.342-2.726Q368.956,94.993,368.366,94.224Z" transform="translate(-317.303 -83.051)" fill="#db3f3d"/>
    </g>
    <circle id="Elipse_100" data-name="Elipse 100" cx="1.211" cy="1.211" r="1.211" transform="translate(-745 1431.057)" fill="#fcd435"/>
    <g id="mars_1_2" data-name="mars (1)" transform="translate(-743.183 1382.543)">
      <path id="Caminho_110-2" data-name="Caminho 110" d="M17.376,54.671h-.02c.616.261,1.245.5,1.883.712l.169.056c.146.048.291.1.437.143q.353.112.711.215l.012,0h0a28.34,28.34,0,0,0,4.453.9q-1.013-.96-1.93-2.016l-.519.236c-.679.309-1.346.612-1.994.873l-.271-.079c-.32-.1-.637-.2-.952-.3-.2-.069-.408-.134-.609-.207-.221-.079-.437-.168-.654-.253-.239-.094-.478-.186-.714-.285,1.1.027,2.776-.729,4.409-1.472l.078-.036c.394.522.8,1.033,1.227,1.526,1.857-.843,3.735-1.646,5.329-1.565a11.9,11.9,0,0,0,6.21-1.077.945.945,0,0,0,.342-1.289A.955.955,0,0,0,33.68,50.4a10.437,10.437,0,0,1-5.181.825c-2.173-.084-4.439.934-6.641,1.937-3.6-4.763-2.619-10.2-2.619-16.631,0-.332,1.093-.886,3.3-.721.008,0,.013.007.021.009l5.193,1.148a.633.633,0,0,1,.178,1.135.949.949,0,0,0,.526,1.738,68.79,68.79,0,0,0,16.357-1.829.948.948,0,0,0,.022-1.834l-1.932-.533,1.857-1.392c.013-.009.018-.024.03-.034,1.027-.256,2.012-.534,2.934-.837a.949.949,0,0,0-.591-1.8A43.5,43.5,0,0,1,42.5,32.806,70.063,70.063,0,0,1,28.46,34.152C24.221,34.152,46.9,7.667,48.026,7.8A28.441,28.441,0,0,0,36,1.011L35.969,1q-.306-.084-.614-.16L35.28.825Q34.992.754,34.7.688L34.584.663Q34.313.6,34.039.548l-.158-.03c-.17-.033-.341-.065-.513-.095l-.2-.033c-.16-.027-.32-.053-.48-.077L32.45.28C32.3.259,32.152.238,32,.219L31.723.187c-.138-.016-.277-.032-.416-.046C31.2.131,31.093.122,30.986.113,30.859.1,30.732.09,30.605.08s-.247-.016-.37-.023S30.009.042,29.9.036c-.148-.007-.3-.012-.444-.017-.09,0-.181-.008-.271-.01Q28.821,0,28.46,0a28.47,28.47,0,0,0-26.9,19.138q.082-.241.17-.48c.021.019.047.027.067.047,1.517,1.621,4.279,3.122,7.986,4.339a.949.949,0,0,1-.591,1.8,23.422,23.422,0,0,1-8.1-4.191c.144-.507.3-1.009.467-1.5A28.415,28.415,0,0,0,0,28.46q0,.355.009.708c0,.079.006.158.008.237.005.156.01.312.018.467,0,.094.011.188.017.282.008.139.016.279.026.418.007.1.016.2.025.3.011.132.022.264.035.395.01.1.021.206.033.309.014.127.028.254.044.38.013.105.027.21.041.315q.025.184.051.368.024.16.049.32.028.179.059.358c.019.108.037.216.057.323s.044.232.067.348.043.219.066.328.048.224.073.336.049.222.075.332.052.215.079.322.056.228.085.341.053.2.08.3c.033.121.065.241.1.361.022.077.046.153.068.229q.233.789.509,1.558l.03.085c.057.158.117.314.177.47.019.05.037.1.057.149.059.151.12.3.182.452.022.053.043.106.065.158.063.15.127.3.192.448l.067.152q.1.227.206.451l.064.138q.109.231.222.46l.058.116q.119.239.243.475l.045.086q.132.25.269.5l.024.043A28.563,28.563,0,0,0,17.376,54.671ZM20.2,8.813a.993.993,0,0,1,1.347,0,.957.957,0,0,1,.275.674.922.922,0,0,1-.275.664.968.968,0,0,1-.673.284A.953.953,0,0,1,20.2,8.813Zm-7.765,3.76A2.247,2.247,0,0,1,15.363,11.5a2.247,2.247,0,0,1,.27,3.109A2.247,2.247,0,0,1,12.7,15.682,2.247,2.247,0,0,1,12.432,12.573ZM6.6,32.589a1.826,1.826,0,0,1,1.082-2.295,1.826,1.826,0,0,1,1.933,1.643A1.826,1.826,0,0,1,8.53,34.232,1.827,1.827,0,0,1,6.6,32.589Z" fill="#db3f3d"/>
      <path id="Caminho_80-2" data-name="Caminho 80" d="M23.092,342.8q-.113-.229-.222-.46Q22.979,342.574,23.092,342.8Z" transform="translate(-20.158 -301.747)" fill="#ff4f19"/>
      <path id="Caminho_81-2" data-name="Caminho 81" d="M20.8,337.827q-.1-.225-.206-.451Q20.693,337.6,20.8,337.827Z" transform="translate(-18.15 -297.369)" fill="#ff4f19"/>
      <path id="Caminho_82-2" data-name="Caminho 82" d="M18.6,332.765c-.065-.149-.13-.3-.192-.448C18.473,332.467,18.537,332.616,18.6,332.765Z" transform="translate(-16.227 -292.91)" fill="#ff4f19"/>
      <path id="Caminho_83-2" data-name="Caminho 83" d="M16.513,327.623c-.062-.15-.123-.3-.182-.452C16.39,327.322,16.451,327.473,16.513,327.623Z" transform="translate(-14.394 -288.374)" fill="#ff4f19"/>
      <path id="Caminho_84-2" data-name="Caminho 84" d="M62.559,8.525a28.44,28.44,0,0,1,12.029,6.793A28.414,28.414,0,0,0,42.836,40.655h0v.016a72.535,72.535,0,0,0,12.187.994,70.065,70.065,0,0,0,14.036-1.345A43.53,43.53,0,0,0,73.7,39.1a.949.949,0,0,1,.591,1.8c-.922.3-1.908.581-2.934.837-.012.01-.018.024-.03.034L69.47,43.162l1.932.533a.948.948,0,0,1-.022,1.834,68.792,68.792,0,0,1-16.357,1.829A.949.949,0,0,1,54.5,45.62a.633.633,0,0,0-.178-1.135l-5.193-1.148c-.008,0-.013-.007-.021-.009-2.21-.166-4.364-.413-6.4-.755-.011.329-.019.658-.019.99a28.309,28.309,0,0,0,5.731,17.116c2.2-1,4.469-2.021,6.641-1.937a10.437,10.437,0,0,0,5.181-.825.955.955,0,0,1,1.291.354.945.945,0,0,1-.342,1.289,11.9,11.9,0,0,1-6.21,1.077c-1.594-.081-3.472.722-5.329,1.565h0q.916,1.054,1.93,2.016a28.344,28.344,0,0,1-4.453-.9h0l-.012,0q-.357-.1-.711-.215c-.147-.046-.292-.095-.437-.143L45.8,62.9c-.638-.216-1.267-.451-1.883-.712h.02a28.566,28.566,0,0,1-13.8-12.4A28.462,28.462,0,1,0,62.559,8.525Zm-3.743,26.5c-.031,0-.081,0-.121,0a6.272,6.272,0,0,0-3.154.918,7.887,7.887,0,0,1-3.9,1.1,9.233,9.233,0,0,1-1.52-.133.949.949,0,1,1,.311-1.871,5.869,5.869,0,0,0,4.245-.786,7.726,7.726,0,0,1,4.153-1.125.949.949,0,0,1-.016,1.9ZM66.2,33.714c-.851,1.084-2.926,1.277-3.541,1.31H62.61a.949.949,0,0,1-.052-1.9,4.25,4.25,0,0,0,2.153-.588A.949.949,0,0,1,66.2,33.714ZM50.952,47.073a.968.968,0,0,1-.674.284.951.951,0,1,1,.673-1.622.957.957,0,0,1,.275.674A.921.921,0,0,1,50.952,47.073Zm12.332,4.743a.968.968,0,0,1-.674.284.951.951,0,1,1,.673-1.622.957.957,0,0,1,.275.674A.921.921,0,0,1,63.285,51.817Zm7.589-20.882a.968.968,0,0,1-.674.284.951.951,0,1,1,.673-1.622.957.957,0,0,1,.275.674A.921.921,0,0,1,70.874,30.934Zm3.795,3.806a.968.968,0,0,1-.674.284.951.951,0,1,1,.673-1.622.957.957,0,0,1,.275.674A.921.921,0,0,1,74.669,34.741ZM70.411,22.993a.923.923,0,0,1-.212.024.949.949,0,0,1-.21-1.873,41.763,41.763,0,0,0,7.636-2.456q.59.77,1.128,1.579A42.886,42.886,0,0,1,70.411,22.993Z" transform="translate(-26.562 -7.514)" fill="#ff4f19"/>
      <path id="Caminho_85-2" data-name="Caminho 85" d="M25.476,347.678q-.124-.236-.243-.475Q25.353,347.442,25.476,347.678Z" transform="translate(-22.241 -306.031)" fill="#ff4f19"/>
      <path id="Caminho_86-2" data-name="Caminho 86" d="M27.933,352.427q-.137-.247-.269-.5Q27.8,352.179,27.933,352.427Z" transform="translate(-24.384 -310.197)" fill="#ff4f19"/>
      <path id="Caminho_87-2" data-name="Caminho 87" d="M2.633,275.572q-.025-.16-.049-.32Q2.608,275.412,2.633,275.572Z" transform="translate(-2.278 -242.612)" fill="#ff4f19"/>
      <path id="Caminho_88-2" data-name="Caminho 88" d="M275.665,2.641c.161.024.32.05.48.077C275.985,2.691,275.826,2.665,275.665,2.641Z" transform="translate(-242.976 -2.328)" fill="#ff4f19"/>
      <path id="Caminho_89-2" data-name="Caminho 89" d="M281.394,3.568c.171.03.342.062.513.095C281.736,3.63,281.565,3.6,281.394,3.568Z" transform="translate(-248.026 -3.145)" fill="#ff4f19"/>
      <path id="Caminho_90-2" data-name="Caminho 90" d="M.312,252.193C.306,252.1.3,252.005.3,251.911.3,252.005.306,252.1.312,252.193Z" transform="translate(-0.26 -222.039)" fill="#ff4f19"/>
      <path id="Caminho_91-2" data-name="Caminho 91" d="M.084,246.21c0-.079-.006-.158-.008-.237C.078,246.052.082,246.131.084,246.21Z" transform="translate(-0.067 -216.805)" fill="#ff4f19"/>
      <path id="Caminho_92-2" data-name="Caminho 92" d="M269.87,1.849c.15.019.3.04.448.061C270.169,1.889,270.02,1.868,269.87,1.849Z" transform="translate(-237.868 -1.63)" fill="#ff4f19"/>
      <path id="Caminho_93-2" data-name="Caminho 93" d="M246.08.077c.091,0,.181.007.271.01C246.261.084,246.171.079,246.08.077Z" transform="translate(-216.899 -0.068)" fill="#ff4f19"/>
      <path id="Caminho_94-2" data-name="Caminho 94" d="M252.11.3c.113.006.226.014.339.021C252.336.317,252.223.309,252.11.3Z" transform="translate(-222.214 -0.267)" fill="#ff4f19"/>
      <path id="Caminho_95-2" data-name="Caminho 95" d="M287.051,4.623q.274.054.545.115C287.415,4.7,287.233,4.659,287.051,4.623Z" transform="translate(-253.012 -4.075)" fill="#ff4f19"/>
      <path id="Caminho_96-2" data-name="Caminho 96" d="M292.635,5.8q.29.065.579.136Q292.925,5.87,292.635,5.8Z" transform="translate(-257.934 -5.117)" fill="#ff4f19"/>
      <path id="Caminho_97-2" data-name="Caminho 97" d="M298.142,7.107q.309.077.615.16Q298.451,7.184,298.142,7.107Z" transform="translate(-262.788 -6.264)" fill="#ff4f19"/>
      <path id="Caminho_98-2" data-name="Caminho 98" d="M1.845,269.8c-.014-.105-.028-.21-.041-.315C1.817,269.592,1.831,269.7,1.845,269.8Z" transform="translate(-1.59 -237.531)" fill="#ff4f19"/>
      <path id="Caminho_99-2" data-name="Caminho 99" d="M1.195,263.979c-.011-.1-.023-.206-.033-.309C1.172,263.773,1.183,263.876,1.195,263.979Z" transform="translate(-1.024 -232.403)" fill="#ff4f19"/>
      <path id="Caminho_100-2" data-name="Caminho 100" d="M.683,258.111c-.008-.1-.017-.2-.025-.3C.665,257.911.674,258.011.683,258.111Z" transform="translate(-0.58 -227.239)" fill="#ff4f19"/>
      <path id="Caminho_101-2" data-name="Caminho 101" d="M258.089.676c.127.009.254.021.381.033C258.343.7,258.216.685,258.089.676Z" transform="translate(-227.484 -0.596)" fill="#ff4f19"/>
      <path id="Caminho_102-2" data-name="Caminho 102" d="M7.1,298.089c-.03-.113-.057-.227-.085-.341C7.039,297.862,7.067,297.976,7.1,298.089Z" transform="translate(-6.18 -262.44)" fill="#ff4f19"/>
      <path id="Caminho_103-2" data-name="Caminho 103" d="M14.539,322.419c-.06-.156-.12-.313-.177-.47C14.419,322.107,14.479,322.263,14.539,322.419Z" transform="translate(-12.659 -283.772)" fill="#ff4f19"/>
      <path id="Caminho_104-2" data-name="Caminho 104" d="M8.5,303.477c-.034-.12-.066-.241-.1-.361C8.437,303.237,8.469,303.357,8.5,303.477Z" transform="translate(-7.407 -267.172)" fill="#ff4f19"/>
      <path id="Caminho_105-2" data-name="Caminho 105" d="M5.792,292.565c-.026-.11-.05-.221-.075-.332C5.742,292.344,5.766,292.455,5.792,292.565Z" transform="translate(-5.039 -257.579)" fill="#ff4f19"/>
      <path id="Caminho_106-2" data-name="Caminho 106" d="M10.324,309.651q-.277-.769-.509-1.558Q10.048,308.881,10.324,309.651Z" transform="translate(-8.651 -271.559)" fill="#ff4f19"/>
      <path id="Caminho_107-2" data-name="Caminho 107" d="M4.609,286.96c-.023-.109-.044-.218-.066-.328C4.565,286.741,4.586,286.851,4.609,286.96Z" transform="translate(-4.004 -252.643)" fill="#ff4f19"/>
      <path id="Caminho_108-2" data-name="Caminho 108" d="M3.555,281.3q-.03-.161-.057-.324Q3.526,281.134,3.555,281.3Z" transform="translate(-3.083 -247.654)" fill="#ff4f19"/>
      <path id="Caminho_109-2" data-name="Caminho 109" d="M264.01,1.192c.139.014.277.03.416.046C264.287,1.222,264.149,1.206,264.01,1.192Z" transform="translate(-232.703 -1.051)" fill="#ff4f19"/>
      <path id="Caminho_111-2" data-name="Caminho 111" d="M201.5,215.976a7.726,7.726,0,0,0-4.153,1.125,5.869,5.869,0,0,1-4.245.786.949.949,0,0,0-.311,1.871,9.235,9.235,0,0,0,1.52.133,7.887,7.887,0,0,0,3.9-1.1,6.272,6.272,0,0,1,3.154-.918c.041,0,.091,0,.121,0a.949.949,0,0,0,.016-1.9Z" transform="translate(-169.232 -190.362)" fill="#db3f3d"/>
      <path id="Caminho_112-2" data-name="Caminho 112" d="M300.384,208.2a.948.948,0,0,0-1.332.159,4.251,4.251,0,0,1-2.153.588.949.949,0,0,0,.052,1.9H297c.615-.033,2.689-.226,3.541-1.31A.949.949,0,0,0,300.384,208.2Z" transform="translate(-260.903 -183.331)" fill="#db3f3d"/>
      <ellipse id="Elipse_80-2" data-name="Elipse 80" cx="2.478" cy="1.897" rx="2.478" ry="1.897" transform="translate(16.963 12.52) rotate(122.471)" fill="#a03939"/>
      <ellipse id="Elipse_81-2" data-name="Elipse 81" cx="1.542" cy="2.014" rx="1.542" ry="2.014" transform="translate(6.172 30.619) rotate(-12.199)" fill="#a03939"/>
      <path id="Caminho_113-2" data-name="Caminho 113" d="M168.949,73.985a.968.968,0,0,0,.674-.284.922.922,0,0,0,.275-.664.957.957,0,0,0-.275-.674.953.953,0,1,0-.674,1.622Z" transform="translate(-148.078 -63.55)" fill="#a03939"/>
      <path id="Caminho_114-2" data-name="Caminho 114" d="M360.275,184.264a.949.949,0,0,0,.674,1.622.968.968,0,0,0,.674-.284.921.921,0,0,0,.275-.664.957.957,0,0,0-.275-.674A.993.993,0,0,0,360.275,184.264Z" transform="translate(-317.31 -162.181)" fill="#db3f3d"/>
      <path id="Caminho_115-2" data-name="Caminho 115" d="M392.275,216.363a.949.949,0,0,0,.674,1.622.968.968,0,0,0,.674-.284.921.921,0,0,0,.275-.664.957.957,0,0,0-.275-.674A.993.993,0,0,0,392.275,216.363Z" transform="translate(-345.516 -190.474)" fill="#db3f3d"/>
      <path id="Caminho_116-2" data-name="Caminho 116" d="M192.275,320.363a.949.949,0,0,0,.674,1.622.968.968,0,0,0,.674-.284.921.921,0,0,0,.275-.664.957.957,0,0,0-.275-.674A.993.993,0,0,0,192.275,320.363Z" transform="translate(-169.232 -282.141)" fill="#db3f3d"/>
      <path id="Caminho_117-2" data-name="Caminho 117" d="M296.275,360.363a.949.949,0,0,0,.674,1.622.968.968,0,0,0,.674-.284.921.921,0,0,0,.275-.664.957.957,0,0,0-.275-.674A.993.993,0,0,0,296.275,360.363Z" transform="translate(-260.9 -317.398)" fill="#db3f3d"/>
      <path id="Caminho_118-2" data-name="Caminho 118" d="M120.015,278.85a.949.949,0,0,0,.755,1.109c.376.072.765.134,1.151.2.022-.639.057-1.274.121-1.9,0,0,0-.008,0-.012h0c-.3-.053-.622-.093-.918-.149A.948.948,0,0,0,120.015,278.85Z" transform="translate(-105.768 -245.103)" fill="#a03939"/>
      <path id="Caminho_119-2" data-name="Caminho 119" d="M17.312,163.531a.949.949,0,0,0,.591-1.8c-3.707-1.217-6.468-2.718-7.986-4.339-.019-.021-.046-.029-.067-.047q-.088.239-.17.48l0,.014c-.169.5-.322,1-.467,1.5A23.419,23.419,0,0,0,17.312,163.531Z" transform="translate(-8.117 -138.683)" fill="#a03939"/>
      <path id="Caminho_120-2" data-name="Caminho 120" d="M151.028,448.317l-.078.036c-1.632.743-3.309,1.5-4.409,1.472.236.1.475.192.714.285.218.085.434.174.654.253.2.073.406.139.609.207.316.105.632.208.952.3l.271.079c.648-.261,1.315-.564,1.994-.873l.519-.236h0C151.827,449.35,151.422,448.839,151.028,448.317Z" transform="translate(-129.164 -395.155)" fill="#a03939"/>
      <path id="Caminho_121-2" data-name="Caminho 121" d="M368.366,94.224a41.751,41.751,0,0,1-7.636,2.456.949.949,0,0,0,.21,1.873.929.929,0,0,0,.212-.024,42.886,42.886,0,0,0,8.342-2.726Q368.956,94.993,368.366,94.224Z" transform="translate(-317.303 -83.051)" fill="#db3f3d"/>
    </g>
  </g>
</svg>
