<svg xmlns="http://www.w3.org/2000/svg" width="355.938" height="170.495" viewBox="0 0 355.938 170.495">
  <g id="Agrupar_2" data-name="Agrupar 2" transform="translate(-497.626 -108)">
    <path id="Caminho_22" data-name="Caminho 22" d="M114.949,57.525H65.384q-15.373,0-18.266,14.926T63.6,105.2q11.749,9.245-4.009,8.8H15.265V137.94H85.432q17.374-2.893,17.708-17.82T85.432,89.379q-10.077-8.353,4.232-7.907h41.189v56.467h26.175V81.471h25.506V57.525Zm62.612,80.413,26.452-80.413h39.93l26.9,80.413H240.434l-5.066-14.479H211.477l-5.07,14.479Zm46.5-62.593L212.537,107.2H234.7Z" transform="translate(482.361 50.475)" fill="#fff" fill-rule="evenodd"/>
    <path id="Caminho_23" data-name="Caminho 23" d="M269.655,137.938V57.525H322q9.692.892,15.929,5.123a24.6,24.6,0,0,1,9.136,11.361q2.225,10.693.219,16.484a20.62,20.62,0,0,1-7.014,9.691q-5.012,3.9-14.365,6.124L331.912,114H371.2V137.94H324.228l-25.506-26.564V137.94H269.655Zm29.067-60.366V92.385H319a6.657,6.657,0,0,0,3.506-1.2q1.9-1.2,2.01-6.042-.283-4.621-2.258-6.1a6.048,6.048,0,0,0-3.313-1.474H298.722v0ZM74.406,193.94,65.942,228.02H39.766L15.265,147.6H41.438l11.025,34.754L62.041,147.6H86.1l11.2,34.754,7.462-34.754H130.93L110.771,228.02H84.6ZM118.92,228.02,145.372,147.6H185.3l26.9,80.417h-30.41l-5.066-14.481H152.836l-5.071,14.481Zm46.5-62.595-11.528,31.854h22.165l-10.637-31.854Z" transform="translate(482.361 50.475)" fill="#fff" fill-rule="evenodd"/>
    <path id="Caminho_24" data-name="Caminho 24" d="M234.464,122.594l30.035-.125V98.523l-54.317.125q-15.376,0-18.268,14.926T208.4,146.319q11.749,9.251-4.011,8.8H166.743l-6.016-7.688q9.36-2.225,14.373-6.124a20.655,20.655,0,0,0,7.014-9.689q2-5.8-.224-16.486a24.607,24.607,0,0,0-9.132-11.361q-6.24-4.236-15.929-5.125H104.48v80.417h29.072V152.5l25.506,26.564h71.171q17.38-2.9,17.706-17.822T230.229,130.5q-10.074-8.353,4.235-7.91Zm-77.133,9.72a6.687,6.687,0,0,1-3.511,1.2H133.552V118.7h20.214a6,6,0,0,1,3.313,1.474q1.981,1.478,2.258,6.1c-.077,3.232-.739,5.246-2.005,6.042Z" transform="translate(588.891 99.43)" fill="#fff" fill-rule="evenodd"/>
  </g>
</svg>
