<svg xmlns="http://www.w3.org/2000/svg" width="57.967" height="58.008" viewBox="0 0 57.967 58.008">
  <g id="obscuro" transform="translate(-0.021 0)">
    <g id="Agrupar_6" data-name="Agrupar 6">
      <path id="Caminho_70" data-name="Caminho 70" d="M57.236,22.477,43.348,26.2l-.518-1.932,13.9-3.726A28.865,28.865,0,0,0,52.718,12.3l-22.11,5.924-.518-1.932L51.4,10.583a29.078,29.078,0,0,0-9.849-7.714L5.1,12.636A29.056,29.056,0,0,0,.415,24.244L4.6,23.124l.518,1.932L.139,26.389a28.834,28.834,0,0,0,.635,9.147l35.812-9.6.518,1.932-35.809,9.6a29.506,29.506,0,0,0,1.374,3.67c2.763-.451,4.167,2.917,2.768,4.771.164.229.346.441.516.664L21.2,42.486l.518,1.932L7.352,48.268a29.09,29.09,0,0,0,9.127,6.872l22.228-5.956.518,1.932L19.519,56.4a28.957,28.957,0,0,0,31.424-8.42L44.5,49.7l-.518-1.932,8.954-2.4c.151-.221.3-.44.449-.664a2.893,2.893,0,0,1,1.69-4.36,3.33,3.33,0,0,1,.657-.108,29.1,29.1,0,0,0,1.65-5.376L51.122,36.54,50.6,34.608l7.148-1.915A28.824,28.824,0,0,0,57.236,22.477Z" fill="#5e5f62"/>
      <path id="Caminho_71" data-name="Caminho 71" d="M21.5,1a29.108,29.108,0,0,0-5.3,1.991A2.725,2.725,0,0,1,14.1,5.878,2.736,2.736,0,0,1,11.888,5.6a28.948,28.948,0,0,0-4.806,4.436L38.52,1.61A28.872,28.872,0,0,0,21.5,1Z" fill="#5e5f62"/>
    </g>
    <circle id="Elipse_37" data-name="Elipse 37" cx="20.5" cy="20.5" r="20.5" transform="translate(3.999 6.999)" fill="#77797f"/>
    <circle id="Elipse_38" data-name="Elipse 38" cx="11.5" cy="11.5" r="11.5" transform="translate(8.999 14.999)" fill="#868c9b"/>
    <circle id="Elipse_39" data-name="Elipse 39" cx="1" cy="1" r="1" transform="translate(1.011 1.556)" fill="#b171c4"/>
    <circle id="Elipse_40" data-name="Elipse 40" cx="1" cy="1" r="1" transform="translate(9.011 55.556)" fill="#b171c4"/>
    <circle id="Elipse_41" data-name="Elipse 41" cx="1" cy="1" r="1" transform="translate(54.011 50.556)" fill="#b171c4"/>
    <circle id="Elipse_42" data-name="Elipse 42" cx="1" cy="1" r="1" transform="translate(1.011 53.556)" fill="#b171c4"/>
    <circle id="Elipse_43" data-name="Elipse 43" cx="1" cy="1" r="1" transform="translate(5.304 5.102)" fill="#b171c4"/>
    <circle id="Elipse_44" data-name="Elipse 44" cx="1" cy="1" r="1" transform="translate(51.011 2.556)" fill="#b171c4"/>
    <g id="Agrupar_7" data-name="Agrupar 7">
      <path id="Caminho_72" data-name="Caminho 72" d="M51.537,34.358c-.005-.058,0-.118-.01-.176a3.914,3.914,0,0,0-3.784-3.546,4.216,4.216,0,0,0-1.093.149,3.759,3.759,0,0,0-2.824,4.264,4.4,4.4,0,0,0,.374,1.275l-16.121,4.32a3.7,3.7,0,0,0-3.328-2.121,4.216,4.216,0,0,0-1.093.149,3.719,3.719,0,0,0-2.843,3.918L5.953,46.572q.669.877,1.4,1.7L21.376,44.51a3.672,3.672,0,0,0,3.243,1.972,4.216,4.216,0,0,0,1.093-.149,3.711,3.711,0,0,0,2.852-3.749l17.077-4.576a3.547,3.547,0,0,0,1.97.587,4.216,4.216,0,0,0,1.093-.149,3.685,3.685,0,0,0,2.427-1.909l6.255-1.676q.223-1.074.366-2.168ZM25.194,44.4a1.9,1.9,0,0,1-2.377-1.728A1.781,1.781,0,0,1,24.176,40.6a2.25,2.25,0,0,1,.575-.081,1.921,1.921,0,0,1,1.8,1.808A1.782,1.782,0,0,1,25.194,44.4Zm22.992-7.887a1.9,1.9,0,0,1-2.377-1.728,1.781,1.781,0,0,1,1.359-2.071,2.25,2.25,0,0,1,.575-.081,1.921,1.921,0,0,1,1.8,1.808A1.782,1.782,0,0,1,48.186,36.514Z" fill="#b171c4"/>
      <path id="Caminho_73" data-name="Caminho 73" d="M38.52,1.61,7.082,10.034a29.03,29.03,0,0,0-1.983,2.6L41.551,2.868A29.21,29.21,0,0,0,38.52,1.61Z" fill="#b171c4"/>
      <path id="Caminho_74" data-name="Caminho 74" d="M8.041,27.112a4.255,4.255,0,0,0,1.092-.148,3.711,3.711,0,0,0,2.852-3.749l11.728-3.143a3.73,3.73,0,0,0,3.41,2.272,4.216,4.216,0,0,0,1.093-.149,3.736,3.736,0,0,0,2.834-4.089L52.719,12.3c-.417-.592-.861-1.161-1.319-1.717L30.414,16.206a3.653,3.653,0,0,0-3.157-1.822,4.216,4.216,0,0,0-1.093.149,3.7,3.7,0,0,0-2.855,3.577L11.5,21.274a3.7,3.7,0,0,0-3.329-2.121,4.255,4.255,0,0,0-1.092.148A3.72,3.72,0,0,0,4.238,23.22L.415,24.244Q.237,25.308.139,26.388L4.8,25.139A3.671,3.671,0,0,0,8.041,27.112Zm18.64-10.647a2.25,2.25,0,0,1,.575-.081,1.921,1.921,0,0,1,1.8,1.808A1.781,1.781,0,0,1,27.7,20.263a1.9,1.9,0,0,1-2.377-1.727A1.781,1.781,0,0,1,26.681,16.465ZM7.6,21.233a2.246,2.246,0,0,1,.574-.08,1.921,1.921,0,0,1,1.8,1.808,1.78,1.78,0,0,1-1.359,2.071A1.9,1.9,0,0,1,6.239,23.3,1.78,1.78,0,0,1,7.6,21.233Z" fill="#b171c4"/>
      <path id="Caminho_75" data-name="Caminho 75" d="M44.957,47.332a3.915,3.915,0,0,0-3.785-3.548,4.216,4.216,0,0,0-1.093.149A3.758,3.758,0,0,0,37.256,48.2a4.4,4.4,0,0,0,.374,1.275L16.478,55.14A28.985,28.985,0,0,0,19.517,56.4L39.07,51.157a3.547,3.547,0,0,0,1.97.587,4.216,4.216,0,0,0,1.093-.149,3.679,3.679,0,0,0,2.427-1.91l6.38-1.709a29.085,29.085,0,0,0,2-2.606l-7.974,2.136C44.962,47.448,44.965,47.389,44.957,47.332Zm-3.341,2.331a1.9,1.9,0,0,1-2.377-1.728A1.78,1.78,0,0,1,40.6,45.864a2.25,2.25,0,0,1,.575-.081,1.921,1.921,0,0,1,1.8,1.809A1.78,1.78,0,0,1,41.616,49.663Z" fill="#b171c4"/>
      <path id="Caminho_76" data-name="Caminho 76" d="M39.785,29.994a4.216,4.216,0,0,0,1.093-.149A3.709,3.709,0,0,0,43.73,26.1l13.506-3.619c-.075-.326-.131-.651-.218-.977s-.186-.641-.283-.959L43.246,24.155a3.7,3.7,0,0,0-3.328-2.121,4.216,4.216,0,0,0-1.093.149A3.72,3.72,0,0,0,35.982,26.1L.773,35.536c.075.325.134.651.221.976s.2.635.3.955l35.247-9.444A3.672,3.672,0,0,0,39.785,29.994Zm-.443-5.879a2.25,2.25,0,0,1,.575-.081,1.921,1.921,0,0,1,1.8,1.808,1.781,1.781,0,0,1-1.359,2.071,1.9,1.9,0,0,1-2.377-1.727A1.782,1.782,0,0,1,39.342,24.115Z" fill="#b171c4"/>
    </g>
  </g>
</svg>
