<svg xmlns="http://www.w3.org/2000/svg" width="58" height="55.991" viewBox="0 0 58 55.991">
  <g id="poluido" transform="translate(736 -1618)">
    <g id="satellite" transform="translate(-736 1616.996)">
      <path id="Caminho_178" data-name="Caminho 178" d="M10.38,8.106a3.992,3.992,0,0,1,5.185,6.042L8.494,21.219a4,4,0,0,0,5.657,5.657L26.172,14.855a4,4,0,0,1,5.657,5.657L15.565,36.775a4,4,0,0,0,5.657,5.657L41.728,21.926a4,4,0,1,1,5.657,5.657L33.243,41.725A4,4,0,1,0,38.9,47.382l4.95-4.95a3.992,3.992,0,0,1,6.042,5.185A27.984,27.984,0,0,0,10.38,8.106Z" fill="#8f8f8f"/>
      <path id="Caminho_179" data-name="Caminho 179" d="M50.237,47.043c.01-.021.022-.04.032-.061a4.072,4.072,0,0,0,.217-.568c.013-.042.026-.084.037-.126a3.96,3.96,0,0,0,.1-.538c.008-.066.014-.133.019-.2a4.179,4.179,0,0,0,.009-.488c0-.092-.015-.183-.026-.274a4,4,0,0,0-.066-.421c-.026-.116-.064-.229-.1-.343s-.07-.23-.117-.342a4.08,4.08,0,0,0-.214-.409c-.046-.081-.084-.166-.137-.244a3.963,3.963,0,0,0-.487-.6,4.011,4.011,0,0,0-5.657,0l-.707.707L38.9,47.383a4,4,0,0,1-5.657-5.657L46.678,28.29l.707-.707a4,4,0,0,0-5.657-5.657l-.707.707-19.8,19.8a4,4,0,0,1-5.657-5.657L31.121,21.219l.707-.707a4,4,0,0,0-5.657-5.657l-.707.707L14.151,26.876a4,4,0,1,1-5.657-5.657l6.364-6.364.707-.707A3.983,3.983,0,0,0,14.968,8c-.078-.053-.163-.09-.244-.137a3.883,3.883,0,0,0-.409-.214c-.112-.047-.227-.08-.342-.117s-.228-.075-.344-.1a3.982,3.982,0,0,0-.42-.065c-.091-.011-.183-.022-.275-.026a3.975,3.975,0,0,0-.488.009c-.067.005-.133.011-.2.019a3.96,3.96,0,0,0-.538.1c-.042.011-.084.025-.126.037a3.827,3.827,0,0,0-.568.215c-.021.01-.041.022-.061.032a3.977,3.977,0,0,0-.574.346,3.894,3.894,0,0,0-.472.385L8.494,9.9c-.08.08-.138.173-.21.258a28,28,0,0,0,39.55,39.551c.085-.072.178-.13.258-.21l1.414-1.414a3.893,3.893,0,0,0,.385-.472A4.041,4.041,0,0,0,50.237,47.043Z" fill="#556080"/>
      <circle id="Elipse_94" data-name="Elipse 94" cx="1" cy="1" r="1" transform="translate(54 1.997)" fill="#8f8f8f"/>
      <circle id="Elipse_95" data-name="Elipse 95" cx="1" cy="1" r="1" transform="translate(54 51.997)" fill="#8f8f8f"/>
      <circle id="Elipse_96" data-name="Elipse 96" cx="1" cy="1" r="1" transform="translate(56 43.997)" fill="#8f8f8f"/>
      <circle id="Elipse_97" data-name="Elipse 97" cx="1" cy="1" r="1" transform="translate(5 2.997)" fill="#8f8f8f"/>
      <circle id="Elipse_98" data-name="Elipse 98" cx="1" cy="1" r="1" transform="translate(6 51.997)" fill="#8f8f8f"/>
      <circle id="Elipse_99" data-name="Elipse 99" cx="1" cy="1" r="1" transform="translate(0 42.997)" fill="#8f8f8f"/>
    </g>
  </g>
</svg>
