<svg xmlns="http://www.w3.org/2000/svg" width="55.559" height="57.656" viewBox="0 0 55.559 57.656">
  <g id="Agrupar_12" data-name="Agrupar 12" transform="translate(-10.483 -9.172)">
    <path id="Caminho_183" data-name="Caminho 183" d="M12.621,47.966a2.621,2.621,0,1,1,0-5.241,13.118,13.118,0,0,0,13.1-13.1,2.621,2.621,0,0,1,5.241,0A18.365,18.365,0,0,1,12.621,47.966Z" transform="translate(3.103 8.379)" fill="#272626"/>
    <path id="Caminho_184" data-name="Caminho 184" d="M24.621,35.966A2.622,2.622,0,0,1,22,33.345,18.365,18.365,0,0,1,40.345,15h13.1a2.621,2.621,0,1,1,0,5.241h-13.1a13.118,13.118,0,0,0-13.1,13.1A2.622,2.622,0,0,1,24.621,35.966Z" transform="translate(6.828 4.655)" fill="#272626"/>
    <path id="Caminho_185" data-name="Caminho 185" d="M52.188,45.172h-13.1a18.332,18.332,0,0,1-12.138-4.584,2.621,2.621,0,1,1,3.467-3.931,13.1,13.1,0,0,0,8.671,3.273h13.1a2.621,2.621,0,1,1,0,5.241Z" transform="translate(8.088 11.173)" fill="#272626"/>
    <path id="Caminho_186" data-name="Caminho 186" d="M23.727,24.243a2.609,2.609,0,0,1-1.747-.668,13.082,13.082,0,0,0-8.739-3.334H10.621a2.621,2.621,0,1,1,0-5.241h2.621a18.329,18.329,0,0,1,12.235,4.669,2.622,2.622,0,0,1-1.749,4.574Z" transform="translate(2.483 4.655)" fill="#272626"/>
    <path id="Caminho_187" data-name="Caminho 187" d="M13.241,44.241H10.621a2.621,2.621,0,1,1,0-5.241h2.621a2.621,2.621,0,1,1,0,5.241Z" transform="translate(2.483 12.103)" fill="#272626"/>
    <path id="Caminho_188" data-name="Caminho 188" d="M36.623,33.207a2.621,2.621,0,0,1-1.545-4.74l11.5-8.364L35.08,11.74A2.621,2.621,0,0,1,38.164,7.5L55.49,20.1l-17.328,12.6A2.6,2.6,0,0,1,36.623,33.207Z" transform="translate(10.552 2.172)" fill="#272626"/>
    <path id="Caminho_189" data-name="Caminho 189" d="M36.623,57.207a2.621,2.621,0,0,1-1.545-4.74l11.5-8.364L35.08,35.74A2.621,2.621,0,0,1,38.164,31.5L55.49,44.1l-17.328,12.6A2.6,2.6,0,0,1,36.623,57.207Z" transform="translate(10.552 9.621)" fill="#272626"/>
  </g>
</svg>
